<svg class="verified" version="1.0" xmlns="http://www.w3.org/2000/svg" width="18" height="18" viewBox="0 0 48.000000 48.000000" preserveAspectRatio="xMidYMid meet"><g transform="translate(0.000000,48.000000) scale(0.100000,-0.100000)" fill="#000000" stroke="none"><path d="M203 420 c-12 -13 -30 -20 -55 -20 -39 0 -58 -19 -58 -58 0 -11 -11 -27 -25 -36 -28 -19 -32 -43 -10 -72 9 -12 12 -32 9 -54 -6 -38 5 -55 41 -62 11 -2 26 -16 33 -31 15 -31 55 -45 77 -27 12 10 21 10 41 1 39 -18 53 -13 75 23 12 22 30 36 48 39 34 7 44 28 30 63 -7 21 -6 31 6 44 24 26 19 65 -10 78 -18 8 -25 19 -25 40 0 36 -17 52 -55 52 -19 0 -39 8 -50 20 -10 11 -26 20 -37 20 -10 0 -26 -9 -35 -20z m117 -133 c0 -7 -25 -37 -55 -67 l-55 -54 -30 29 c-28 26 -40 55 -23 55 4 0 17 -10 30 -22 l24 -22 47 47 c48 49 62 56 62 34z"/></g></svg>