<svg class="logo" version="1.0" xmlns="http://www.w3.org/2000/svg" width="120" height="auto" viewBox="0 0 3464.000000 1653.000000" preserveAspectRatio="xMidYMid meet"> <g transform="translate(0.000000,1653.000000) scale(0.100000,-0.100000)" fill="#000000" stroke="none"><path d="M7420 13864 c-169 -9 -386 -27 -490 -40 -878 -111 -1686 -413 -2425 -907 -131 -88 -382 -279 -520 -397 -161 -138 -485 -464 -623 -628 -613 -728 -1020 -1565 -1211 -2492 -113 -549 -140 -1177 -75 -1750 142 -1252 707 -2417 1608 -3315 201 -200 349 -327 591 -510 307 -231 562 -387 915 -559 550 -268 1110 -434 1735 -515 427 -55 965 -56 1383 -1 512 68 931 176 1397 361 195 77 584 270 760 376 642 388 1174 864 1609 1441 923 1225 1298 2748 1051 4269 -230 1414 -1004 2685 -2165 3557 -837 628 -1810 1000 -2850 1090 -175 15 -567 27 -690 20z m962 -1504 c414 -443 1164 -1243 1666 -1779 502 -536 911 -978 910 -982 -8 -22 -3334 -6189 -3338 -6189 -3 0 -756 1393 -1673 3096 l-1668 3095 28 34 c66 79 3309 3535 3315 3532 4 -1 346 -364 760 -807z"/> <path d="M13500 13048 c0 -53 -15 -46 136 -66 104 -14 158 -41 193 -97 57 -90 56 -53 56 -1705 0 -1416 -1 -1520 -18 -1591 -31 -134 -99 -182 -276 -197 l-86 -7 -3 -50 -3 -50 936 0 936 0 -3 50 -3 50 -75 6 c-190 16 -261 70 -289 224 -8 41 -11 524 -11 1584 0 1665 -1 1623 56 1698 42 55 88 71 292 99 31 5 32 6 32 52 l0 47 -935 0 -935 0 0 -47z"/> <path d="M15680 13048 c0 -53 -3 -52 104 -63 126 -12 196 -48 232 -118 42 -81 43 -119 44 -1532 0 -1545 -2 -1592 -72 -1742 -44 -95 -134 -162 -260 -194 l-48 -11 0 -52 0 -51 525 0 525 0 0 51 0 52 -56 7 c-211 26 -360 115 -420 251 -57 129 -57 131 -61 1229 l-4 1010 40 -40 c21 -22 558 -607 1192 -1300 l1152 -1260 194 -3 193 -2 0 1517 c0 1781 3 1851 79 2001 44 88 111 138 233 177 l73 23 3 49 3 48 -531 0 -530 0 0 -47 c0 -52 -8 -47 115 -73 196 -42 303 -109 357 -225 65 -139 69 -214 75 -1155 l4 -830 -44 45 c-24 25 -521 549 -1104 1165 l-1059 1120 -477 0 -477 0 0 -47z"/> <path d="M19640 13048 c0 -45 1 -47 33 -52 17 -3 65 -10 106 -16 41 -6 90 -18 108 -27 47 -22 89 -74 110 -135 17 -50 18 -139 21 -1433 3 -1391 0 -1550 -33 -1689 -39 -163 -131 -255 -297 -297 l-48 -11 0 -52 0 -51 525 0 525 0 0 51 0 51 -52 7 c-79 10 -196 45 -258 76 -65 33 -134 103 -161 164 -65 148 -71 262 -67 1340 l3 910 1189 -1300 1190 -1299 193 -3 193 -2 0 1502 c0 1502 5 1743 35 1890 21 99 69 184 131 230 40 31 128 70 212 94 7 2 12 22 12 51 l0 48 -530 0 -530 0 0 -47 c0 -41 3 -48 23 -52 371 -74 460 -154 504 -455 13 -87 16 -252 20 -941 l4 -835 -95 100 c-52 55 -548 579 -1103 1165 l-1008 1064 -477 1 -478 0 0 -47z"/> <path d="M23590 13048 c0 -53 -3 -52 104 -63 147 -14 217 -61 252 -165 18 -52 19 -127 22 -1580 2 -1098 0 -1547 -8 -1604 -14 -97 -46 -163 -95 -194 -43 -27 -148 -52 -222 -52 l-53 0 0 -52 0 -53 1566 0 1566 0 -6 40 c-26 185 -43 1151 -22 1298 l7 57 -64 0 -65 0 -7 -47 c-12 -82 -82 -343 -118 -444 -82 -224 -173 -376 -310 -516 -140 -144 -273 -223 -429 -258 -63 -14 -113 -16 -275 -12 -112 2 -214 9 -235 16 -47 15 -94 61 -110 109 -9 28 -13 231 -16 831 l-3 794 93 -6 c117 -8 182 -26 284 -76 193 -96 347 -300 408 -541 l24 -95 62 -3 63 -3 -6 78 c-21 262 -29 594 -25 1006 l4 457 -57 0 -58 0 -11 -42 c-19 -78 -62 -182 -103 -253 -155 -268 -369 -415 -605 -415 l-73 0 3 778 c3 586 7 786 16 814 17 50 64 95 115 110 28 9 106 13 232 13 167 0 200 -3 268 -23 232 -67 421 -224 555 -462 73 -129 162 -406 193 -602 l13 -78 64 0 64 0 -7 58 c-17 134 -4 821 21 1147 l6 80 -1511 0 -1511 0 0 -47z"/> <path d="M27120 13048 c0 -54 -8 -49 120 -65 143 -18 203 -64 237 -178 17 -56 18 -157 21 -1555 3 -1523 1 -1632 -34 -1720 -21 -53 -83 -105 -142 -120 -26 -7 -82 -14 -124 -17 l-78 -6 0 -51 0 -51 930 0 930 0 0 51 0 51 -77 6 c-120 8 -170 24 -218 71 -82 78 -79 50 -83 889 l-3 737 149 0 c166 0 214 -11 275 -61 78 -64 135 -180 187 -382 34 -131 44 -188 105 -597 25 -168 55 -339 66 -380 74 -273 265 -416 614 -459 248 -30 549 6 731 89 75 34 196 115 242 163 l32 33 -34 33 -33 32 -37 -25 c-71 -48 -178 -53 -241 -12 -68 45 -96 126 -170 487 -99 482 -102 498 -150 595 -137 282 -445 440 -968 495 -64 7 -116 13 -115 15 2 1 71 12 153 23 156 22 361 71 478 116 162 61 278 134 387 244 184 186 272 398 272 661 0 235 -66 409 -212 559 -194 200 -482 306 -980 362 -74 9 -420 12 -1167 13 l-1063 1 0 -47z m1856 -57 c157 -30 249 -101 319 -245 80 -167 108 -326 109 -626 0 -289 -26 -448 -104 -615 -95 -205 -252 -291 -557 -302 l-143 -6 0 759 c1 829 3 874 55 952 15 22 42 48 61 57 68 32 172 42 260 26z"/> <path d="M16003 8815 c-701 -79 -1282 -343 -1714 -778 -543 -547 -800 -1275 -759 -2147 23 -480 105 -836 275 -1185 343 -706 954 -1115 1860 -1244 315 -45 724 -52 920 -17 294 54 582 153 985 341 172 80 332 139 412 150 101 15 159 -17 208 -114 36 -71 59 -151 68 -233 l7 -63 72 -3 71 -3 5 888 c5 974 6 997 64 1092 33 54 86 83 181 101 l63 12 -3 72 -3 71 -165 -5 c-256 -8 -2184 -5 -2282 3 l-88 7 0 -74 0 -74 78 -7 c196 -16 359 -50 428 -90 120 -70 179 -180 215 -400 17 -100 24 -1100 9 -1197 -29 -187 -133 -294 -327 -334 -96 -20 -319 -15 -408 10 -378 105 -659 478 -811 1080 -102 403 -152 941 -141 1521 17 856 179 1486 495 1914 167 227 341 360 568 436 139 46 221 58 399 58 224 0 404 -43 620 -148 233 -113 454 -323 566 -540 104 -200 181 -497 224 -870 8 -71 15 -136 15 -142 0 -10 23 -13 85 -13 l85 0 0 383 c0 418 15 1218 26 1365 l6 92 -84 0 -85 0 -17 -111 c-31 -202 -73 -297 -142 -319 -53 -18 -94 -1 -216 89 -317 235 -577 349 -943 413 -156 27 -630 35 -822 13z"/> <path d="M19032 8659 l3 -74 100 -11 c265 -29 343 -81 390 -259 33 -126 36 -388 32 -2330 -3 -1472 -6 -1927 -16 -1984 -40 -235 -124 -298 -433 -326 l-78 -7 0 -75 0 -76 143 7 c279 12 3312 18 3717 8 217 -6 396 -9 399 -7 2 3 -1 66 -8 142 -32 387 -46 1194 -27 1591 l8 183 -83 -3 -83 -3 -13 -65 c-93 -478 -226 -840 -405 -1103 -73 -107 -271 -311 -368 -378 -149 -104 -302 -168 -453 -188 -101 -14 -428 -14 -536 0 -178 22 -236 79 -260 252 -7 52 -11 425 -11 1098 l0 1019 43 0 c211 -1 406 -55 559 -157 232 -153 425 -455 480 -748 l11 -65 88 0 89 0 -5 28 c-3 15 -12 162 -22 327 -18 327 -24 1197 -10 1543 l8 192 -84 0 -84 0 -13 -57 c-69 -310 -305 -648 -560 -801 -118 -71 -233 -104 -377 -110 l-123 -5 0 1004 c0 591 5 1035 10 1079 14 109 49 173 113 210 78 44 151 53 407 47 237 -5 306 -16 455 -75 192 -76 408 -251 542 -441 151 -214 278 -558 349 -946 25 -140 12 -125 110 -125 85 0 86 0 79 23 -4 12 -9 195 -12 406 -5 382 5 766 31 1141 7 102 12 186 12 187 -1 1 -256 -3 -566 -9 -566 -10 -2786 -5 -3298 9 l-253 6 3 -74z"/> <path d="M23850 8656 l0 -76 43 0 c65 0 220 -28 280 -50 90 -34 144 -109 175 -243 14 -65 16 -254 19 -1867 4 -1820 1 -2054 -32 -2247 -38 -218 -105 -331 -244 -413 -67 -38 -122 -61 -198 -80 l-43 -11 0 -74 0 -75 93 8 c120 9 1056 9 1215 0 l122 -8 0 74 0 74 -92 17 c-348 64 -509 174 -582 400 -25 79 -45 232 -56 444 -7 129 -10 796 -8 1955 l3 1758 1035 -2356 1034 -2356 61 0 60 0 885 2262 885 2262 3 -1909 c2 -1308 0 -1948 -8 -2030 -30 -337 -114 -410 -502 -441 l-88 -6 0 -74 0 -74 168 8 c217 9 2032 9 2270 0 l182 -8 0 70 c0 48 -4 72 -12 74 -7 2 -68 11 -135 20 -222 29 -292 75 -342 222 -40 121 -42 234 -38 2319 4 2158 1 2076 57 2184 53 104 130 140 357 165 l108 12 3 73 3 74 -133 -6 c-73 -4 -512 -10 -975 -14 l-843 -6 -53 -136 c-29 -75 -300 -772 -602 -1549 -492 -1265 -550 -1410 -561 -1390 -7 13 -320 715 -696 1561 l-683 1538 -320 -8 c-439 -10 -1565 -10 -1702 0 l-113 8 0 -75z"/> </g> </svg>
