<svg version="1.1" id="Layer_1" xmlns="http://www.w3.org/2000/svg" xmlns:xlink="http://www.w3.org/1999/xlink" x="0px" y="0px"
	 width="120" height="auto" viewBox="0 0 3464 1309" enable-background="new 0 0 3464 1309" xml:space="preserve">
<path fill="transparent" opacity="1.000000" stroke="none" 
	d="
M2242.000000,1312.000000 
	C1494.666626,1312.000000 748.333313,1312.000000 2.000000,1312.000000 
	C2.000000,875.333313 2.000000,438.666656 2.000000,2.000000 
	C1156.666626,2.000000 2311.333252,2.000000 3466.000000,2.000000 
	C3466.000000,438.666656 3466.000000,875.333313 3466.000000,1312.000000 
	C3058.333252,1312.000000 2650.666748,1312.000000 2242.000000,1312.000000 
M218.356171,555.627258 
	C215.024139,577.544373 210.338959,599.358887 208.666336,621.401917 
	C205.922684,657.559509 206.871887,693.846619 212.663895,729.742493 
	C221.079346,781.897095 237.445450,831.451660 262.382355,878.168213 
	C296.973969,942.971741 344.381805,996.562744 403.872498,1039.293823 
	C444.617249,1068.560059 489.218506,1090.537598 537.262573,1105.356934 
	C571.355713,1115.873291 606.217896,1122.553833 641.736450,1125.099854 
	C666.936035,1126.906250 692.185120,1126.432251 717.470642,1124.262085 
	C770.292419,1119.728638 820.817871,1106.579346 868.944580,1084.749512 
	C928.418457,1057.772583 980.128296,1019.924866 1023.940125,971.300415 
	C1063.561768,927.326599 1093.661499,877.669861 1114.567139,822.359924 
	C1133.029663,773.513489 1142.816895,722.925171 1144.258057,670.792542 
	C1145.465454,627.117188 1140.775635,584.024475 1129.902100,541.629333 
	C1116.819824,490.622314 1095.906250,443.050659 1066.801392,399.236237 
	C1043.343506,363.922607 1015.510376,332.412750 983.497925,304.390930 
	C934.750366,261.720154 879.549683,230.582535 818.089478,210.975006 
	C757.623596,191.684708 695.489319,185.249817 632.150330,191.253006 
	C592.968506,194.966599 554.800659,203.080063 517.792725,216.501877 
	C434.205322,246.816971 364.714294,296.852844 309.068726,366.122650 
	C287.762146,392.645905 269.608063,421.267456 254.724548,451.834900 
	C238.833557,484.471497 226.877213,518.585083 218.356171,555.627258 
M2004.344727,1028.103638 
	C2003.677490,1017.841858 2002.450439,1007.581055 2002.431274,997.318054 
	C2002.274414,913.331848 2002.343018,829.345276 2002.343018,745.358765 
	C2002.343018,742.935547 2002.342896,740.512268 2002.342896,738.089050 
	C2003.025635,738.014099 2003.708374,737.939087 2004.391235,737.864136 
	C2055.331299,853.787537 2106.271240,969.710938 2157.219971,1085.654053 
	C2160.918213,1085.654053 2164.148193,1085.654053 2167.513672,1085.654053 
	C2211.004395,974.621338 2254.364502,863.922180 2297.724609,753.223083 
	C2298.368652,753.385254 2299.012939,753.547485 2299.657227,753.709656 
	C2299.657227,756.903137 2299.656982,760.096619 2299.656982,763.290100 
	C2299.656982,851.275940 2299.694092,939.261902 2299.592285,1027.247559 
	C2299.583496,1034.852783 2299.013428,1042.500732 2298.080078,1050.051758 
	C2296.462891,1063.134521 2290.499512,1069.383423 2277.459717,1072.202881 
	C2273.264404,1073.109741 2268.942627,1073.414551 2264.696777,1074.107056 
	C2261.236328,1074.671509 2257.803711,1075.403809 2254.131592,1076.105103 
	C2254.434326,1080.295410 2254.663818,1083.472046 2254.866943,1086.283691 
	C2320.952148,1086.283691 2386.277100,1086.283691 2451.969971,1086.283691 
	C2451.969971,1082.744507 2451.969971,1079.513184 2451.969971,1076.005859 
	C2450.512695,1075.648926 2449.289062,1075.238037 2448.032715,1075.063843 
	C2445.085693,1074.654785 2442.123291,1074.357788 2439.166748,1074.017334 
	C2422.787598,1072.131836 2415.282471,1064.757080 2413.956299,1048.427979 
	C2413.070312,1037.519287 2412.427246,1026.556519 2412.411377,1015.616943 
	C2412.287598,930.630798 2412.292969,845.644348 2412.411865,760.658203 
	C2412.425293,751.053589 2413.068848,741.419556 2413.986084,731.853394 
	C2415.458008,716.500000 2420.949219,710.788269 2435.963867,708.135437 
	C2438.569824,707.674988 2441.258789,707.689697 2443.871338,707.256836 
	C2446.691650,706.789429 2449.467529,706.054260 2452.474854,705.389038 
	C2452.257080,701.185852 2452.077637,697.730225 2451.896729,694.238464 
	C2447.331055,694.666687 2444.051270,695.192444 2440.763672,695.247070 
	C2420.461426,695.585205 2400.158447,695.931519 2379.854248,696.053894 
	C2357.525391,696.188538 2335.195068,696.066101 2312.865234,696.109680 
	C2310.284180,696.114685 2307.703613,696.464539 2305.050537,696.659790 
	C2275.143555,773.518372 2245.420654,849.902893 2214.873535,928.405823 
	C2179.572266,849.057983 2145.094238,771.561218 2110.881592,694.660278 
	C2056.670166,695.737000 2003.584717,697.416565 1950.073853,694.862061 
	C1950.073853,698.364563 1950.073853,701.887451 1950.073853,705.805176 
	C1953.248413,706.352783 1956.121094,706.974304 1959.026245,707.328796 
	C1977.096436,709.533691 1986.903320,711.803772 1988.316772,739.540833 
	C1988.384521,740.870544 1988.326660,742.206665 1988.326660,743.539795 
	C1988.326660,833.192017 1988.480469,922.844910 1988.136230,1012.495789 
	C1988.092163,1023.993835 1986.154663,1035.625854 1983.817383,1046.931885 
	C1981.720337,1057.075073 1975.405151,1064.831665 1965.565308,1069.102661 
	C1960.472656,1071.313110 1955.304932,1073.350586 1950.395264,1075.373901 
	C1950.395264,1079.368286 1950.395264,1083.183350 1950.395264,1086.237061 
	C1986.529297,1086.237061 2021.926392,1086.237061 2057.678711,1086.237061 
	C2057.678711,1082.701904 2057.678711,1078.934082 2057.678711,1075.248413 
	C2049.652588,1073.340088 2042.141846,1071.989136 2034.908325,1069.744629 
	C2019.448730,1064.947754 2009.184204,1055.035278 2006.109375,1038.620117 
	C2005.563232,1035.703857 2004.955444,1032.799316 2004.344727,1028.103638 
M2533.660645,506.999847 
	C2533.660645,524.658508 2533.994873,542.325745 2533.540039,559.972717 
	C2533.250732,571.208130 2532.099854,582.450317 2530.762939,593.620972 
	C2529.578613,603.517395 2523.265137,608.708740 2513.551025,610.116455 
	C2508.025391,610.917236 2502.532227,611.943359 2496.899902,612.888916 
	C2496.899902,616.199646 2496.899902,619.322327 2496.899902,622.690674 
	C2556.543213,622.690674 2615.619385,622.690674 2675.159424,622.690674 
	C2675.349609,620.793152 2675.602295,619.214294 2675.640137,617.630249 
	C2675.677734,616.055542 2675.499756,614.475708 2675.418457,612.941772 
	C2670.280762,612.032898 2665.766602,610.665222 2661.217773,610.536926 
	C2647.818115,610.159119 2641.151367,601.398254 2639.979980,587.558228 
	C2639.086426,576.999817 2638.478516,566.387146 2638.411377,555.794434 
	C2638.211182,524.142700 2638.339600,492.488983 2638.339600,460.836060 
	C2638.339600,457.581818 2638.339355,454.327545 2638.339355,450.093445 
	C2645.717529,450.093445 2652.310303,450.451233 2658.850830,450.019196 
	C2672.611084,449.110229 2682.167480,455.604889 2687.448242,467.457092 
	C2692.002686,477.679260 2695.932617,488.486389 2698.020508,499.438629 
	C2702.788574,524.452576 2706.180176,549.726685 2710.276855,574.871338 
	C2715.891602,609.331421 2732.362061,622.000977 2759.288330,627.636169 
	C2782.206543,632.432495 2805.580566,631.753540 2828.505127,625.946350 
	C2843.887451,622.049744 2856.906250,614.103638 2867.573486,603.206726 
	C2865.395264,600.218750 2863.639648,597.810547 2861.955566,595.500610 
	C2859.593262,596.664429 2857.963867,597.152771 2856.718750,598.130127 
	C2845.969727,606.566223 2830.536865,600.062134 2827.575684,587.410706 
	C2826.524902,582.921448 2824.688232,578.610840 2823.716553,574.109375 
	C2819.034668,552.417297 2814.798584,530.625732 2809.860840,508.993439 
	C2806.512451,494.324066 2798.646240,482.262604 2786.746094,472.791992 
	C2774.803711,463.287628 2761.179932,457.483551 2746.526367,454.047058 
	C2734.965332,451.335815 2723.242188,449.315430 2710.125488,446.695496 
	C2713.897217,446.061615 2716.179443,445.670685 2718.464355,445.295288 
	C2738.509521,442.001495 2758.290771,437.677826 2776.278809,427.769104 
	C2812.357910,407.894623 2829.381592,374.532959 2823.625977,332.688934 
	C2819.624268,303.594696 2801.352295,285.282654 2775.309082,274.021027 
	C2750.595947,263.334503 2724.363525,259.260712 2697.723145,258.238007 
	C2677.810791,257.473602 2657.845703,258.087280 2637.904053,258.087280 
	C2602.252930,258.087280 2566.601318,258.143066 2530.950439,258.052277 
	C2520.647705,258.026031 2510.346924,257.535522 2500.042969,257.382874 
	C2498.848633,257.365173 2497.642334,258.150360 2496.201904,258.645660 
	C2496.414062,261.861908 2496.605225,264.765289 2496.794678,267.638153 
	C2501.594482,268.243500 2505.871094,268.730316 2510.131836,269.329895 
	C2523.669678,271.235016 2530.043213,277.375793 2531.645508,291.308624 
	C2532.818115,301.507843 2533.545898,311.816803 2533.574951,322.079407 
	C2533.748779,383.052460 2533.660645,444.026276 2533.660645,506.999847 
M1524.005737,1063.085205 
	C1526.607544,1070.822998 1529.209229,1078.560791 1531.927124,1086.644043 
	C1534.894775,1086.644043 1538.342651,1086.644043 1542.342896,1086.644043 
	C1542.342896,1082.702515 1542.342896,1079.403320 1542.342896,1076.104126 
	C1542.342896,1040.780029 1542.283081,1005.455872 1542.401245,970.132202 
	C1542.421021,964.189819 1543.001343,958.225952 1543.682861,952.313538 
	C1545.622925,935.479858 1546.798096,934.203613 1562.508057,930.083191 
	C1563.406372,929.847595 1564.216309,929.274719 1565.776245,928.512451 
	C1565.394043,925.164062 1565.007446,921.777588 1564.654419,918.683960 
	C1500.371826,918.683960 1437.265747,918.683960 1374.188843,918.683960 
	C1374.188843,922.651306 1374.188843,926.159485 1374.188843,929.003601 
	C1384.244995,930.717651 1393.742065,932.020752 1403.094116,934.007446 
	C1415.826660,936.712158 1423.330078,945.115051 1425.739014,957.628235 
	C1427.232544,965.386108 1428.019043,973.359863 1428.262939,981.263245 
	C1428.960083,1003.852173 1429.918945,1026.469604 1429.437012,1049.047241 
	C1429.013428,1068.889160 1421.110840,1078.112183 1403.395142,1081.241455 
	C1379.313232,1085.494995 1358.587036,1078.620483 1342.323364,1060.145020 
	C1329.133301,1045.161133 1321.233154,1027.305664 1315.605347,1008.302246 
	C1306.497437,977.548279 1303.992798,945.830750 1302.522461,914.095520 
	C1300.967529,880.529968 1303.410522,847.113953 1310.147095,814.081299 
	C1315.237549,789.121338 1323.425049,765.550598 1338.225342,744.451111 
	C1356.553467,718.322632 1380.859741,704.889893 1413.250610,705.119019 
	C1452.364258,705.395813 1493.092163,730.760437 1505.835083,768.775574 
	C1509.203369,778.824402 1511.994629,789.134155 1514.115234,799.515259 
	C1516.343384,810.421814 1517.448608,821.557739 1519.042358,832.578857 
	C1523.714966,832.578857 1527.811646,832.578857 1531.787598,832.578857 
	C1532.517456,786.096802 1533.235962,740.333069 1533.948853,694.925903 
	C1529.074707,694.925903 1524.992554,694.925903 1520.843750,694.925903 
	C1520.367310,699.369812 1520.235229,703.045593 1519.517822,706.603333 
	C1518.802246,710.151550 1517.675415,713.645935 1516.423340,717.051575 
	C1512.136108,728.713257 1507.470947,730.119690 1497.185547,722.945129 
	C1494.734375,721.235413 1492.395752,719.363953 1490.011108,717.559387 
	C1475.832275,706.829651 1460.114258,699.214355 1443.166016,693.906616 
	C1424.170044,687.957581 1404.700317,687.126953 1384.990601,687.193604 
	C1347.130859,687.321655 1311.224731,694.880615 1277.689941,712.977722 
	C1230.956421,738.197449 1199.718384,776.145935 1183.865112,826.693848 
	C1174.198120,857.516785 1172.841919,889.077148 1175.436035,921.159363 
	C1177.547729,947.274231 1182.983643,972.357239 1194.060791,996.052490 
	C1211.558594,1033.482422 1239.625488,1059.975098 1277.690430,1076.139038 
	C1299.925415,1085.580933 1323.177490,1090.849365 1347.020264,1092.967529 
	C1368.861206,1094.907715 1390.868774,1095.891602 1412.610229,1091.124146 
	C1435.790649,1086.041382 1457.523438,1077.016846 1478.940918,1067.038818 
	C1487.053345,1063.259399 1495.358765,1059.758301 1503.853638,1056.977539 
	C1510.921143,1054.663940 1518.407593,1053.539062 1524.005737,1063.085205 
M2725.676270,879.001587 
	C2726.053223,856.826294 2726.430420,834.651001 2726.817627,811.878784 
	C2722.813965,811.878784 2718.649902,811.878784 2714.465332,811.878784 
	C2701.221436,850.373474 2681.974365,882.089966 2634.947510,884.141663 
	C2634.710205,881.633667 2634.370117,879.709839 2634.368896,877.785828 
	C2634.339355,829.462402 2634.312988,781.138916 2634.412109,732.815674 
	C2634.419434,729.237732 2635.058594,725.579529 2635.958496,722.102173 
	C2637.792480,715.016724 2642.209229,710.451111 2649.812012,709.749451 
	C2656.729980,709.110901 2663.660156,708.222717 2670.590820,708.167908 
	C2709.711182,707.858765 2737.513916,726.324524 2755.549805,760.322021 
	C2764.956787,778.054688 2770.024658,797.275574 2773.759277,816.887939 
	C2774.475830,820.650513 2775.482178,824.357910 2776.356445,828.098083 
	C2779.216553,828.098083 2781.213623,828.218445 2783.189697,828.065674 
	C2785.346680,827.898926 2787.484375,827.479126 2789.222412,827.228455 
	C2785.724609,782.466553 2789.142822,738.512085 2791.454834,694.841187 
	C2687.838135,697.104187 2585.125244,696.182007 2481.923340,694.741089 
	C2481.828613,696.501709 2481.661133,698.104858 2481.677246,699.706055 
	C2481.697021,701.645935 2481.872070,703.584290 2481.995850,705.811218 
	C2485.313721,706.372986 2488.199463,706.966431 2491.113525,707.338196 
	C2513.265137,710.164490 2519.584229,717.128479 2520.316650,739.630737 
	C2520.360107,740.962402 2520.323486,742.296631 2520.323486,743.629700 
	C2520.323486,841.942932 2520.331299,940.256104 2520.295166,1038.569336 
	C2520.293701,1042.555298 2520.126465,1046.573120 2519.613037,1050.520996 
	C2517.874268,1063.897461 2512.418701,1070.026489 2499.475830,1072.852051 
	C2493.754395,1074.101074 2487.889160,1074.693237 2481.557861,1075.665283 
	C2481.794678,1079.958008 2481.984863,1083.401978 2482.219238,1087.647705 
	C2490.433594,1087.086426 2497.656494,1086.241821 2504.888184,1086.158203 
	C2539.522949,1085.757812 2574.159912,1085.313843 2608.795898,1085.351929 
	C2667.757080,1085.416870 2726.718018,1085.805664 2785.678467,1086.142212 
	C2790.864258,1086.171875 2796.046631,1086.819580 2802.307129,1087.255127 
	C2799.201660,1038.638306 2797.137451,990.753052 2800.506592,942.580688 
	C2795.247559,942.580688 2791.090332,942.580688 2787.532227,942.580688 
	C2783.496582,957.929810 2780.221436,972.855042 2775.620850,987.359741 
	C2766.713867,1015.440796 2752.671875,1040.320801 2728.224121,1058.132324 
	C2716.429199,1066.725708 2703.574463,1072.619873 2688.814697,1073.209595 
	C2679.498291,1073.581909 2670.118652,1073.802612 2660.830811,1073.167480 
	C2642.606201,1071.921387 2634.380615,1069.906738 2634.358154,1045.812988 
	C2634.314453,998.822571 2634.345459,951.832214 2634.345459,904.841797 
	C2634.345459,901.924683 2634.345459,899.007568 2634.345459,896.129211 
	C2651.106934,894.814941 2665.735107,898.382996 2678.658936,907.418518 
	C2699.610596,922.066345 2710.892090,942.978455 2715.502686,967.674194 
	C2720.430664,967.674194 2724.667480,967.674194 2728.486084,967.674194 
	C2727.540527,938.510010 2726.608398,909.756226 2725.676270,879.001587 
M1906.342041,1054.500488 
	C1906.342041,1017.291870 1906.342041,980.083313 1906.342041,942.763794 
	C1901.379639,942.763794 1897.299072,942.763794 1893.401978,942.763794 
	C1890.806641,953.732178 1888.662109,964.101074 1885.881836,974.296570 
	C1877.908691,1003.535522 1866.173706,1030.735718 1842.781982,1051.394775 
	C1827.345581,1065.028076 1810.062134,1073.995972 1788.793457,1073.317383 
	C1782.135620,1073.104980 1775.459717,1073.459961 1768.801514,1073.251953 
	C1747.348267,1072.581909 1740.566528,1068.165894 1740.425293,1044.523804 
	C1740.144287,997.539612 1740.333618,950.552612 1740.364990,903.566772 
	C1740.366699,901.006042 1740.698608,898.445557 1740.924683,895.195435 
	C1747.807129,895.881653 1754.153076,895.899780 1760.213501,897.223938 
	C1787.940308,903.282104 1805.302734,921.346313 1815.788940,946.757446 
	C1818.625610,953.631714 1820.316528,960.978760 1822.379761,967.614868 
	C1827.190430,967.614868 1831.094238,967.614868 1835.546753,967.614868 
	C1831.570679,915.563354 1831.409058,863.947144 1833.426392,811.797302 
	C1828.636108,811.797302 1824.463135,811.797302 1820.411621,811.797302 
	C1802.082642,863.272156 1780.147583,883.112000 1740.879883,883.516357 
	C1740.702637,881.304443 1740.366699,879.056396 1740.365234,876.808105 
	C1740.334839,829.822266 1740.306030,782.836365 1740.408081,735.850708 
	C1740.416626,731.936157 1741.137817,727.979370 1741.910889,724.118896 
	C1743.748901,714.941284 1748.072876,710.519470 1757.046143,709.513000 
	C1764.943359,708.627258 1772.934082,708.098999 1780.876221,708.174805 
	C1808.447632,708.438049 1830.854370,719.645264 1848.718262,740.563843 
	C1861.082397,755.042175 1868.335938,772.066040 1873.640381,789.949402 
	C1877.286499,802.242065 1879.660522,814.911987 1882.624023,827.501831 
	C1886.872681,827.501831 1891.034180,827.501831 1894.342041,827.501831 
	C1894.342041,804.687500 1894.034424,782.466858 1894.429077,760.258728 
	C1894.819092,738.310425 1896.866333,716.399902 1897.406250,694.880676 
	C1793.421997,697.088501 1690.749390,696.160706 1587.934326,694.759460 
	C1587.934326,698.536987 1587.934326,701.798523 1587.934326,705.906311 
	C1593.547119,706.717712 1599.077026,707.244019 1604.487793,708.352783 
	C1618.162109,711.154846 1623.846191,717.106995 1625.643066,731.074768 
	C1626.739990,739.601624 1627.559326,748.233398 1627.573486,756.819580 
	C1627.713501,841.127258 1627.717529,925.435303 1627.593628,1009.743042 
	C1627.575073,1022.339966 1626.973755,1034.953857 1626.147705,1047.527344 
	C1625.002441,1064.957520 1617.260620,1072.529419 1599.887085,1074.082642 
	C1596.005859,1074.429565 1592.137451,1074.922363 1588.290161,1075.345093 
	C1588.290161,1079.702637 1588.290161,1083.176880 1588.290161,1086.833008 
	C1695.194092,1085.622070 1801.466431,1084.040283 1908.763062,1086.825562 
	C1907.910156,1076.104614 1907.126221,1066.251831 1906.342041,1054.500488 
M2341.000000,622.100464 
	C2354.329346,622.100464 2367.658691,622.100525 2380.988037,622.100525 
	C2393.983887,622.100525 2407.006348,622.621582 2419.967773,621.954590 
	C2433.068115,621.280518 2446.163086,625.132690 2459.309326,622.436096 
	C2455.497314,577.504517 2455.137695,533.228210 2457.233643,488.497925 
	C2452.922119,488.497925 2449.060303,488.497925 2444.851318,488.497925 
	C2444.451416,489.969208 2444.033447,491.180695 2443.796875,492.426666 
	C2440.266602,511.019287 2435.629639,529.303162 2428.045654,546.703003 
	C2419.969727,565.231812 2409.010498,581.693298 2392.799561,594.203552 
	C2382.942383,601.810547 2372.267822,608.494080 2359.774414,609.630310 
	C2346.665527,610.822449 2333.347412,610.547119 2320.170166,609.904968 
	C2309.063721,609.363770 2303.511719,603.252014 2302.448730,592.132202 
	C2301.879639,586.179993 2301.719727,580.170349 2301.710693,574.186096 
	C2301.649658,534.199158 2301.678955,494.212036 2301.678955,454.224976 
	C2301.678955,450.974030 2301.678955,447.723053 2301.678955,444.267517 
	C2347.889404,445.260712 2369.137695,472.800018 2378.614502,513.297119 
	C2380.814209,513.297119 2382.464111,513.368225 2384.105469,513.278381 
	C2385.991699,513.175171 2387.870361,512.929382 2390.700195,512.652893 
	C2387.507324,463.414642 2386.445557,414.726715 2389.027344,365.643616 
	C2384.805176,365.643616 2380.881592,365.643616 2376.815918,365.643616 
	C2376.115723,367.739258 2375.404053,369.579651 2374.884033,371.472809 
	C2369.908691,389.585205 2360.301514,404.901093 2346.540527,417.541290 
	C2334.059570,429.006226 2319.414307,434.406494 2302.586670,432.922424 
	C2302.120117,431.348450 2301.771973,430.725067 2301.774170,430.102936 
	C2301.947021,384.132385 2302.092041,338.161560 2302.377197,292.191620 
	C2302.470947,277.078033 2308.781494,270.079163 2324.095459,269.966064 
	C2325.077881,269.958832 2326.051025,269.511932 2327.039551,269.451385 
	C2364.072998,267.183533 2393.182129,280.363617 2412.435303,313.038849 
	C2420.789062,327.216003 2426.024170,342.521790 2429.681396,358.443665 
	C2431.368164,365.787628 2432.861816,373.175964 2434.512451,380.867554 
	C2438.418945,380.867554 2441.949707,380.867554 2445.185303,380.867554 
	C2446.108643,339.541382 2447.022949,298.630127 2447.933838,257.863281 
	C2351.759277,257.863281 2256.004883,257.863281 2159.954102,257.863281 
	C2159.954102,261.357819 2159.954102,264.259735 2159.954102,267.571747 
	C2165.001953,268.253265 2169.867920,268.818176 2174.702393,269.581207 
	C2186.354004,271.420135 2192.067871,276.349731 2193.943359,287.907074 
	C2195.422119,297.017395 2196.204590,306.341248 2196.223145,315.572388 
	C2196.390869,398.545227 2196.390869,481.518677 2196.225830,564.491516 
	C2196.206787,574.052917 2195.295898,583.667053 2194.039307,593.156250 
	C2192.761475,602.805359 2186.804443,608.532837 2177.049072,610.088318 
	C2171.283936,611.007629 2165.528320,611.987122 2159.565674,612.973083 
	C2159.723145,616.482910 2159.855469,619.435669 2159.974854,622.100464 
	C2219.935547,622.100464 2279.467773,622.100464 2341.000000,622.100464 
M1646.415894,416.578278 
	C1640.001465,409.821838 1633.590332,403.062378 1627.172241,396.309509 
	C1614.115356,382.571564 1601.031860,368.858948 1588.000366,355.097046 
	C1559.177124,324.658539 1530.272583,294.295563 1501.674927,263.646362 
	C1496.852051,258.477539 1491.751587,256.953552 1484.981201,257.159607 
	C1465.019165,257.767090 1445.040405,257.838165 1425.067627,258.069550 
	C1418.200195,258.149109 1411.331177,258.082245 1404.169189,258.082245 
	C1404.169189,261.397614 1404.169189,264.548950 1404.169189,267.508575 
	C1410.254150,268.424042 1415.860962,269.017151 1421.355957,270.151215 
	C1430.250122,271.986786 1436.607056,276.972900 1438.108032,286.326538 
	C1439.259521,293.502869 1440.217651,300.805847 1440.231323,308.054443 
	C1440.379517,386.708557 1440.402954,465.363251 1440.232666,544.017273 
	C1440.209106,554.926575 1439.394653,565.882874 1438.169678,576.729797 
	C1436.192505,594.236267 1427.022095,606.160706 1409.545654,610.918823 
	C1407.688843,611.424377 1405.862549,612.042236 1403.602295,612.737061 
	C1403.796509,616.338867 1403.967529,619.506714 1404.138794,622.682373 
	C1438.257324,622.682373 1471.648315,622.682373 1505.094604,622.682373 
	C1505.094604,618.901489 1505.094604,615.735840 1505.094604,613.211304 
	C1496.430054,610.739075 1488.396240,608.688660 1480.521851,606.144409 
	C1468.117676,602.136658 1459.971069,593.635559 1457.762695,580.812256 
	C1455.691284,568.784363 1453.949463,556.529663 1453.854858,544.360840 
	C1453.440063,491.039062 1453.676147,437.712219 1453.676025,384.387207 
	C1453.676025,381.899414 1453.676025,379.411621 1453.676025,374.627228 
	C1458.168945,379.672363 1460.903931,382.837158 1463.737915,385.910767 
	C1483.781860,407.649719 1503.925537,429.297211 1523.884277,451.113983 
	C1550.795410,480.530090 1577.504639,510.131042 1604.421387,539.542053 
	C1628.211182,565.536133 1652.415649,591.156860 1675.843018,617.471313 
	C1680.648560,622.868896 1685.175049,623.552307 1691.457275,623.039551 
	C1697.990479,622.506348 1704.611816,623.091858 1711.194824,623.107605 
	C1713.384155,623.112854 1715.574097,622.868835 1718.345703,622.704163 
	C1718.345703,618.430298 1718.345703,614.805481 1718.345703,611.180603 
	C1718.345703,524.527466 1718.281494,437.874207 1718.411987,351.221222 
	C1718.432373,337.614716 1719.232422,324.004852 1719.853760,310.404816 
	C1720.836670,288.891083 1730.062012,273.615540 1752.222534,268.346405 
	C1752.869507,268.192566 1753.560059,268.079010 1754.123901,267.759094 
	C1754.622070,267.476410 1754.971191,266.931122 1755.760864,266.113983 
	C1755.592407,263.657959 1755.397339,260.814240 1755.195679,257.874756 
	C1721.049072,257.874756 1687.620605,257.874756 1653.967651,257.874756 
	C1653.967651,261.383942 1653.967651,264.297485 1653.967651,267.038788 
	C1662.543457,269.469757 1670.908813,271.451477 1679.000610,274.229736 
	C1690.055054,278.025208 1698.213257,285.352386 1700.321777,297.184296 
	C1702.694946,310.500610 1705.224365,324.001953 1705.416260,337.455200 
	C1706.048340,381.772614 1705.663940,426.104675 1705.623657,470.431061 
	C1705.621826,472.473694 1705.172729,474.515930 1704.755249,478.057251 
	C1684.890625,457.105103 1666.153320,437.341919 1646.415894,416.578278 
M1970.892212,360.021454 
	C1956.343506,344.483673 1941.861328,328.882996 1927.227661,313.425629 
	C1912.352783,297.713593 1896.798096,282.603851 1882.623779,266.289642 
	C1876.732910,259.509430 1871.039795,256.920227 1862.329468,257.106567 
	C1838.388306,257.618805 1814.428955,257.263275 1790.476929,257.314423 
	C1787.922485,257.319855 1785.368896,257.742798 1782.710693,257.981415 
	C1782.710693,261.513397 1782.710693,264.387054 1782.710693,267.441711 
	C1788.240967,268.319916 1793.436768,269.117432 1798.622681,269.974609 
	C1807.620483,271.461914 1814.075684,276.126404 1816.117310,285.304871 
	C1817.329224,290.753174 1818.224243,296.405579 1818.232910,301.967865 
	C1818.363647,385.964386 1818.405518,469.961395 1818.206909,553.957642 
	C1818.185059,563.189453 1817.169434,572.528809 1815.524414,581.621033 
	C1813.038574,595.359863 1805.088989,605.040894 1791.555664,609.646729 
	C1788.501587,610.686096 1785.468262,611.786194 1782.134033,612.960999 
	C1782.446655,616.683411 1782.708862,619.807556 1782.945801,622.629578 
	C1817.012695,622.629578 1850.097412,622.629578 1883.770752,622.629578 
	C1883.562012,618.755798 1883.390869,615.577087 1883.238159,612.741577 
	C1876.264771,611.026978 1870.125977,609.581848 1864.021362,608.004456 
	C1846.202637,603.400574 1836.285767,591.741638 1834.323853,573.617432 
	C1833.039551,561.752991 1831.856689,549.808044 1831.793213,537.892944 
	C1831.519531,486.563019 1831.666626,435.230865 1831.707764,383.899536 
	C1831.709717,381.508087 1832.169312,379.117035 1832.551147,375.413513 
	C1838.331299,381.698303 1843.045532,386.796417 1847.729614,391.922119 
	C1864.106567,409.843201 1880.453369,427.791870 1896.848389,445.696381 
	C1916.592651,467.258301 1936.389038,488.772644 1956.135986,510.332306 
	C1972.303345,527.983643 1988.409424,545.690918 2004.582397,563.337219 
	C2021.201538,581.470520 2037.982666,599.457520 2054.441650,617.734741 
	C2058.997070,622.793518 2063.770020,623.920959 2070.356445,622.784790 
	C2076.135010,621.787964 2082.240967,622.696899 2088.202148,622.748657 
	C2090.696289,622.770325 2093.190918,622.752258 2096.345703,622.752258 
	C2096.345703,618.480835 2096.345703,614.860901 2096.345703,611.240906 
	C2096.345703,521.911011 2096.268799,432.580994 2096.435303,343.251434 
	C2096.458008,330.990784 2097.210938,318.682739 2098.473145,306.484314 
	C2100.461182,287.273529 2109.279297,273.217407 2129.554199,268.845581 
	C2130.821533,268.572296 2132.001221,267.891754 2133.744385,267.190308 
	C2133.554443,264.124542 2133.359863,260.984009 2133.171631,257.944641 
	C2098.895752,257.944641 2065.462646,257.944641 2032.015381,257.944641 
	C2032.015381,261.545410 2032.015381,264.472931 2032.015381,267.131287 
	C2040.383057,269.410980 2048.428711,271.325226 2056.294434,273.808960 
	C2069.161621,277.871979 2077.075684,287.002686 2079.616943,299.986755 
	C2081.707520,310.667511 2083.379639,321.619904 2083.477783,332.467896 
	C2083.894287,378.462341 2083.663574,424.462738 2083.623291,470.460907 
	C2083.621338,472.489929 2083.164551,474.518555 2082.919678,476.547363 
	C2083.378418,475.754700 2083.837402,474.962006 2084.296143,474.169342 
	C2076.319336,467.617249 2067.612793,461.769165 2060.492920,454.390259 
	C2030.704346,423.517365 2001.391479,392.185333 1970.892212,360.021454 
M1232.328735,422.999847 
	C1232.328735,474.315948 1232.400635,525.632324 1232.235107,576.947876 
	C1232.215088,583.177490 1231.300049,589.476990 1230.115967,595.612122 
	C1228.569580,603.624512 1223.295898,608.334351 1215.261597,609.782898 
	C1209.119141,610.890320 1202.949585,611.847168 1196.245361,612.961853 
	C1196.470581,616.401489 1196.675049,619.523376 1196.882568,622.692078 
	C1256.757202,622.692078 1315.833740,622.692078 1375.132568,622.692078 
	C1375.132568,619.031616 1375.132568,615.889893 1375.132568,612.825867 
	C1368.733032,611.825073 1362.814331,611.149109 1357.009155,609.931519 
	C1348.906494,608.231873 1342.900757,603.864258 1341.560913,595.137756 
	C1340.262695,586.683350 1338.502563,578.165039 1338.479370,569.670654 
	C1338.250488,485.699310 1338.292725,401.727020 1338.409180,317.755219 
	C1338.421997,308.485840 1339.114868,299.193756 1339.961792,289.955231 
	C1341.008179,278.540619 1346.372192,272.604462 1357.633423,270.145172 
	C1363.372192,268.891937 1369.249390,268.273468 1374.945801,267.386505 
	C1374.945801,263.938629 1374.945801,260.850281 1374.945801,257.951569 
	C1315.112305,257.951569 1256.002686,257.951569 1196.710815,257.951569 
	C1196.710815,261.495392 1196.710815,264.370483 1196.710815,267.452759 
	C1201.902588,268.259216 1206.762695,269.031738 1211.628540,269.766357 
	C1222.393555,271.391541 1229.039551,277.492493 1230.972046,288.204254 
	C1231.850342,293.072357 1232.259399,298.088684 1232.272095,303.039368 
	C1232.373779,342.359283 1232.328735,381.679626 1232.328735,422.999847 
z"/>
<path fill="#000000" opacity="1.000000" stroke="none" 
	d="
M218.529480,554.807495 
	C226.877213,518.585083 238.833557,484.471497 254.724548,451.834900 
	C269.608063,421.267456 287.762146,392.645905 309.068726,366.122650 
	C364.714294,296.852844 434.205322,246.816971 517.792725,216.501877 
	C554.800659,203.080063 592.968506,194.966599 632.150330,191.253006 
	C695.489319,185.249817 757.623596,191.684708 818.089478,210.975006 
	C879.549683,230.582535 934.750366,261.720154 983.497925,304.390930 
	C1015.510376,332.412750 1043.343506,363.922607 1066.801392,399.236237 
	C1095.906250,443.050659 1116.819824,490.622314 1129.902100,541.629333 
	C1140.775635,584.024475 1145.465454,627.117188 1144.258057,670.792542 
	C1142.816895,722.925171 1133.029663,773.513489 1114.567139,822.359924 
	C1093.661499,877.669861 1063.561768,927.326599 1023.940125,971.300415 
	C980.128296,1019.924866 928.418457,1057.772583 868.944580,1084.749512 
	C820.817871,1106.579346 770.292419,1119.728638 717.470642,1124.262085 
	C692.185120,1126.432251 666.936035,1126.906250 641.736450,1125.099854 
	C606.217896,1122.553833 571.355713,1115.873291 537.262573,1105.356934 
	C489.218506,1090.537598 444.617249,1068.560059 403.872498,1039.293823 
	C344.381805,996.562744 296.973969,942.971741 262.382355,878.168213 
	C237.445450,831.451660 221.079346,781.897095 212.663895,729.742493 
	C206.871887,693.846619 205.922684,657.559509 208.666336,621.401917 
	C210.338959,599.358887 215.024139,577.544373 218.529480,554.807495 
M841.423584,746.432312 
	C863.013733,716.880554 884.603882,687.328796 906.301575,657.629822 
	C829.521912,552.684082 753.083008,448.204102 675.872620,342.669647 
	C598.582214,448.318878 522.018005,552.975525 445.427185,657.668396 
	C522.396545,762.877869 598.806763,867.322937 675.875183,972.667847 
	C731.280579,896.924988 785.909302,822.243958 841.423584,746.432312 
z"/>
<path fill="#000000" opacity="1.000000" stroke="none" 
	d="
M2004.360352,1028.996460 
	C2004.955444,1032.799316 2005.563232,1035.703857 2006.109375,1038.620117 
	C2009.184204,1055.035278 2019.448730,1064.947754 2034.908325,1069.744629 
	C2042.141846,1071.989136 2049.652588,1073.340088 2057.678711,1075.248413 
	C2057.678711,1078.934082 2057.678711,1082.701904 2057.678711,1086.237061 
	C2021.926392,1086.237061 1986.529297,1086.237061 1950.395264,1086.237061 
	C1950.395264,1083.183350 1950.395264,1079.368286 1950.395264,1075.373901 
	C1955.304932,1073.350586 1960.472656,1071.313110 1965.565308,1069.102661 
	C1975.405151,1064.831665 1981.720337,1057.075073 1983.817383,1046.931885 
	C1986.154663,1035.625854 1988.092163,1023.993835 1988.136230,1012.495789 
	C1988.480469,922.844910 1988.326660,833.192017 1988.326660,743.539795 
	C1988.326660,742.206665 1988.384521,740.870544 1988.316772,739.540833 
	C1986.903320,711.803772 1977.096436,709.533691 1959.026245,707.328796 
	C1956.121094,706.974304 1953.248413,706.352783 1950.073853,705.805176 
	C1950.073853,701.887451 1950.073853,698.364563 1950.073853,694.862061 
	C2003.584717,697.416565 2056.670166,695.737000 2110.881592,694.660278 
	C2145.094238,771.561218 2179.572266,849.057983 2214.873535,928.405823 
	C2245.420654,849.902893 2275.143555,773.518372 2305.050537,696.659790 
	C2307.703613,696.464539 2310.284180,696.114685 2312.865234,696.109680 
	C2335.195068,696.066101 2357.525391,696.188538 2379.854248,696.053894 
	C2400.158447,695.931519 2420.461426,695.585205 2440.763672,695.247070 
	C2444.051270,695.192444 2447.331055,694.666687 2451.896729,694.238464 
	C2452.077637,697.730225 2452.257080,701.185852 2452.474854,705.389038 
	C2449.467529,706.054260 2446.691650,706.789429 2443.871338,707.256836 
	C2441.258789,707.689697 2438.569824,707.674988 2435.963867,708.135437 
	C2420.949219,710.788269 2415.458008,716.500000 2413.986084,731.853394 
	C2413.068848,741.419556 2412.425293,751.053589 2412.411865,760.658203 
	C2412.292969,845.644348 2412.287598,930.630798 2412.411377,1015.616943 
	C2412.427246,1026.556519 2413.070312,1037.519287 2413.956299,1048.427979 
	C2415.282471,1064.757080 2422.787598,1072.131836 2439.166748,1074.017334 
	C2442.123291,1074.357788 2445.085693,1074.654785 2448.032715,1075.063843 
	C2449.289062,1075.238037 2450.512695,1075.648926 2451.969971,1076.005859 
	C2451.969971,1079.513184 2451.969971,1082.744507 2451.969971,1086.283691 
	C2386.277100,1086.283691 2320.952148,1086.283691 2254.866943,1086.283691 
	C2254.663818,1083.472046 2254.434326,1080.295410 2254.131592,1076.105103 
	C2257.803711,1075.403809 2261.236328,1074.671509 2264.696777,1074.107056 
	C2268.942627,1073.414551 2273.264404,1073.109741 2277.459717,1072.202881 
	C2290.499512,1069.383423 2296.462891,1063.134521 2298.080078,1050.051758 
	C2299.013428,1042.500732 2299.583496,1034.852783 2299.592285,1027.247559 
	C2299.694092,939.261902 2299.656982,851.275940 2299.656982,763.290100 
	C2299.656982,760.096619 2299.657227,756.903137 2299.657227,753.709656 
	C2299.012939,753.547485 2298.368652,753.385254 2297.724609,753.223083 
	C2254.364502,863.922180 2211.004395,974.621338 2167.513672,1085.654053 
	C2164.148193,1085.654053 2160.918213,1085.654053 2157.219971,1085.654053 
	C2106.271240,969.710938 2055.331299,853.787537 2004.391235,737.864136 
	C2003.708374,737.939087 2003.025635,738.014099 2002.342896,738.089050 
	C2002.342896,740.512268 2002.343018,742.935547 2002.343018,745.358765 
	C2002.343018,829.345276 2002.274414,913.331848 2002.431274,997.318054 
	C2002.450439,1007.581055 2003.677490,1017.841858 2004.360352,1028.996460 
z"/>
<path fill="#000000" opacity="1.000000" stroke="none" 
	d="
M2533.660645,505.999817 
	C2533.660645,444.026276 2533.748779,383.052460 2533.574951,322.079407 
	C2533.545898,311.816803 2532.818115,301.507843 2531.645508,291.308624 
	C2530.043213,277.375793 2523.669678,271.235016 2510.131836,269.329895 
	C2505.871094,268.730316 2501.594482,268.243500 2496.794678,267.638153 
	C2496.605225,264.765289 2496.414062,261.861908 2496.201904,258.645660 
	C2497.642334,258.150360 2498.848633,257.365173 2500.042969,257.382874 
	C2510.346924,257.535522 2520.647705,258.026031 2530.950439,258.052277 
	C2566.601318,258.143066 2602.252930,258.087280 2637.904053,258.087280 
	C2657.845703,258.087280 2677.810791,257.473602 2697.723145,258.238007 
	C2724.363525,259.260712 2750.595947,263.334503 2775.309082,274.021027 
	C2801.352295,285.282654 2819.624268,303.594696 2823.625977,332.688934 
	C2829.381592,374.532959 2812.357910,407.894623 2776.278809,427.769104 
	C2758.290771,437.677826 2738.509521,442.001495 2718.464355,445.295288 
	C2716.179443,445.670685 2713.897217,446.061615 2710.125488,446.695496 
	C2723.242188,449.315430 2734.965332,451.335815 2746.526367,454.047058 
	C2761.179932,457.483551 2774.803711,463.287628 2786.746094,472.791992 
	C2798.646240,482.262604 2806.512451,494.324066 2809.860840,508.993439 
	C2814.798584,530.625732 2819.034668,552.417297 2823.716553,574.109375 
	C2824.688232,578.610840 2826.524902,582.921448 2827.575684,587.410706 
	C2830.536865,600.062134 2845.969727,606.566223 2856.718750,598.130127 
	C2857.963867,597.152771 2859.593262,596.664429 2861.955566,595.500610 
	C2863.639648,597.810547 2865.395264,600.218750 2867.573486,603.206726 
	C2856.906250,614.103638 2843.887451,622.049744 2828.505127,625.946350 
	C2805.580566,631.753540 2782.206543,632.432495 2759.288330,627.636169 
	C2732.362061,622.000977 2715.891602,609.331421 2710.276855,574.871338 
	C2706.180176,549.726685 2702.788574,524.452576 2698.020508,499.438629 
	C2695.932617,488.486389 2692.002686,477.679260 2687.448242,467.457092 
	C2682.167480,455.604889 2672.611084,449.110229 2658.850830,450.019196 
	C2652.310303,450.451233 2645.717529,450.093445 2638.339355,450.093445 
	C2638.339355,454.327545 2638.339600,457.581818 2638.339600,460.836060 
	C2638.339600,492.488983 2638.211182,524.142700 2638.411377,555.794434 
	C2638.478516,566.387146 2639.086426,576.999817 2639.979980,587.558228 
	C2641.151367,601.398254 2647.818115,610.159119 2661.217773,610.536926 
	C2665.766602,610.665222 2670.280762,612.032898 2675.418457,612.941772 
	C2675.499756,614.475708 2675.677734,616.055542 2675.640137,617.630249 
	C2675.602295,619.214294 2675.349609,620.793152 2675.159424,622.690674 
	C2615.619385,622.690674 2556.543213,622.690674 2496.899902,622.690674 
	C2496.899902,619.322327 2496.899902,616.199646 2496.899902,612.888916 
	C2502.532227,611.943359 2508.025391,610.917236 2513.551025,610.116455 
	C2523.265137,608.708740 2529.578613,603.517395 2530.762939,593.620972 
	C2532.099854,582.450317 2533.250732,571.208130 2533.540039,559.972717 
	C2533.994873,542.325745 2533.660645,524.658508 2533.660645,505.999817 
M2709.810547,305.360535 
	C2709.241211,303.464783 2708.725586,301.550964 2708.094482,299.675964 
	C2700.350342,276.667480 2685.440674,266.580109 2661.433838,268.084900 
	C2648.610840,268.888702 2641.882812,274.878937 2640.280518,287.498993 
	C2639.323975,295.032532 2638.444580,302.638550 2638.410400,310.216003 
	C2638.228271,350.471069 2638.313721,390.727386 2638.351562,430.983215 
	C2638.354004,433.518555 2638.738281,436.053528 2639.021729,439.527588 
	C2645.873779,439.018646 2652.052979,438.377716 2658.248047,438.131104 
	C2685.058105,437.063873 2700.713379,425.849701 2708.243896,401.987976 
	C2718.174072,370.521759 2717.489502,338.791168 2709.810547,305.360535 
z"/>
<path fill="#000000" opacity="1.000000" stroke="none" 
	d="
M1523.630249,1062.392334 
	C1518.407593,1053.539062 1510.921143,1054.663940 1503.853638,1056.977539 
	C1495.358765,1059.758301 1487.053345,1063.259399 1478.940918,1067.038818 
	C1457.523438,1077.016846 1435.790649,1086.041382 1412.610229,1091.124146 
	C1390.868774,1095.891602 1368.861206,1094.907715 1347.020264,1092.967529 
	C1323.177490,1090.849365 1299.925415,1085.580933 1277.690430,1076.139038 
	C1239.625488,1059.975098 1211.558594,1033.482422 1194.060791,996.052490 
	C1182.983643,972.357239 1177.547729,947.274231 1175.436035,921.159363 
	C1172.841919,889.077148 1174.198120,857.516785 1183.865112,826.693848 
	C1199.718384,776.145935 1230.956421,738.197449 1277.689941,712.977722 
	C1311.224731,694.880615 1347.130859,687.321655 1384.990601,687.193604 
	C1404.700317,687.126953 1424.170044,687.957581 1443.166016,693.906616 
	C1460.114258,699.214355 1475.832275,706.829651 1490.011108,717.559387 
	C1492.395752,719.363953 1494.734375,721.235413 1497.185547,722.945129 
	C1507.470947,730.119690 1512.136108,728.713257 1516.423340,717.051575 
	C1517.675415,713.645935 1518.802246,710.151550 1519.517822,706.603333 
	C1520.235229,703.045593 1520.367310,699.369812 1520.843750,694.925903 
	C1524.992554,694.925903 1529.074707,694.925903 1533.948853,694.925903 
	C1533.235962,740.333069 1532.517456,786.096802 1531.787598,832.578857 
	C1527.811646,832.578857 1523.714966,832.578857 1519.042358,832.578857 
	C1517.448608,821.557739 1516.343384,810.421814 1514.115234,799.515259 
	C1511.994629,789.134155 1509.203369,778.824402 1505.835083,768.775574 
	C1493.092163,730.760437 1452.364258,705.395813 1413.250610,705.119019 
	C1380.859741,704.889893 1356.553467,718.322632 1338.225342,744.451111 
	C1323.425049,765.550598 1315.237549,789.121338 1310.147095,814.081299 
	C1303.410522,847.113953 1300.967529,880.529968 1302.522461,914.095520 
	C1303.992798,945.830750 1306.497437,977.548279 1315.605347,1008.302246 
	C1321.233154,1027.305664 1329.133301,1045.161133 1342.323364,1060.145020 
	C1358.587036,1078.620483 1379.313232,1085.494995 1403.395142,1081.241455 
	C1421.110840,1078.112183 1429.013428,1068.889160 1429.437012,1049.047241 
	C1429.918945,1026.469604 1428.960083,1003.852173 1428.262939,981.263245 
	C1428.019043,973.359863 1427.232544,965.386108 1425.739014,957.628235 
	C1423.330078,945.115051 1415.826660,936.712158 1403.094116,934.007446 
	C1393.742065,932.020752 1384.244995,930.717651 1374.188843,929.003601 
	C1374.188843,926.159485 1374.188843,922.651306 1374.188843,918.683960 
	C1437.265747,918.683960 1500.371826,918.683960 1564.654419,918.683960 
	C1565.007446,921.777588 1565.394043,925.164062 1565.776245,928.512451 
	C1564.216309,929.274719 1563.406372,929.847595 1562.508057,930.083191 
	C1546.798096,934.203613 1545.622925,935.479858 1543.682861,952.313538 
	C1543.001343,958.225952 1542.421021,964.189819 1542.401245,970.132202 
	C1542.283081,1005.455872 1542.342896,1040.780029 1542.342896,1076.104126 
	C1542.342896,1079.403320 1542.342896,1082.702515 1542.342896,1086.644043 
	C1538.342651,1086.644043 1534.894775,1086.644043 1531.927124,1086.644043 
	C1529.209229,1078.560791 1526.607544,1070.822998 1523.630249,1062.392334 
z"/>
<path fill="#000000" opacity="1.000000" stroke="none" 
	d="
M2725.676270,880.002014 
	C2726.608398,909.756226 2727.540527,938.510010 2728.486084,967.674194 
	C2724.667480,967.674194 2720.430664,967.674194 2715.502686,967.674194 
	C2710.892090,942.978455 2699.610596,922.066345 2678.658936,907.418518 
	C2665.735107,898.382996 2651.106934,894.814941 2634.345459,896.129211 
	C2634.345459,899.007568 2634.345459,901.924683 2634.345459,904.841797 
	C2634.345459,951.832214 2634.314453,998.822571 2634.358154,1045.812988 
	C2634.380615,1069.906738 2642.606201,1071.921387 2660.830811,1073.167480 
	C2670.118652,1073.802612 2679.498291,1073.581909 2688.814697,1073.209595 
	C2703.574463,1072.619873 2716.429199,1066.725708 2728.224121,1058.132324 
	C2752.671875,1040.320801 2766.713867,1015.440796 2775.620850,987.359741 
	C2780.221436,972.855042 2783.496582,957.929810 2787.532227,942.580688 
	C2791.090332,942.580688 2795.247559,942.580688 2800.506592,942.580688 
	C2797.137451,990.753052 2799.201660,1038.638306 2802.307129,1087.255127 
	C2796.046631,1086.819580 2790.864258,1086.171875 2785.678467,1086.142212 
	C2726.718018,1085.805664 2667.757080,1085.416870 2608.795898,1085.351929 
	C2574.159912,1085.313843 2539.522949,1085.757812 2504.888184,1086.158203 
	C2497.656494,1086.241821 2490.433594,1087.086426 2482.219238,1087.647705 
	C2481.984863,1083.401978 2481.794678,1079.958008 2481.557861,1075.665283 
	C2487.889160,1074.693237 2493.754395,1074.101074 2499.475830,1072.852051 
	C2512.418701,1070.026489 2517.874268,1063.897461 2519.613037,1050.520996 
	C2520.126465,1046.573120 2520.293701,1042.555298 2520.295166,1038.569336 
	C2520.331299,940.256104 2520.323486,841.942932 2520.323486,743.629700 
	C2520.323486,742.296631 2520.360107,740.962402 2520.316650,739.630737 
	C2519.584229,717.128479 2513.265137,710.164490 2491.113525,707.338196 
	C2488.199463,706.966431 2485.313721,706.372986 2481.995850,705.811218 
	C2481.872070,703.584290 2481.697021,701.645935 2481.677246,699.706055 
	C2481.661133,698.104858 2481.828613,696.501709 2481.923340,694.741089 
	C2585.125244,696.182007 2687.838135,697.104187 2791.454834,694.841187 
	C2789.142822,738.512085 2785.724609,782.466553 2789.222412,827.228455 
	C2787.484375,827.479126 2785.346680,827.898926 2783.189697,828.065674 
	C2781.213623,828.218445 2779.216553,828.098083 2776.356445,828.098083 
	C2775.482178,824.357910 2774.475830,820.650513 2773.759277,816.887939 
	C2770.024658,797.275574 2764.956787,778.054688 2755.549805,760.322021 
	C2737.513916,726.324524 2709.711182,707.858765 2670.590820,708.167908 
	C2663.660156,708.222717 2656.729980,709.110901 2649.812012,709.749451 
	C2642.209229,710.451111 2637.792480,715.016724 2635.958496,722.102173 
	C2635.058594,725.579529 2634.419434,729.237732 2634.412109,732.815674 
	C2634.312988,781.138916 2634.339355,829.462402 2634.368896,877.785828 
	C2634.370117,879.709839 2634.710205,881.633667 2634.947510,884.141663 
	C2681.974365,882.089966 2701.221436,850.373474 2714.465332,811.878784 
	C2718.649902,811.878784 2722.813965,811.878784 2726.817627,811.878784 
	C2726.430420,834.651001 2726.053223,856.826294 2725.676270,880.002014 
z"/>
<path fill="#000000" opacity="1.000000" stroke="none" 
	d="
M1906.342285,1055.449707 
	C1907.126221,1066.251831 1907.910156,1076.104614 1908.763062,1086.825562 
	C1801.466431,1084.040283 1695.194092,1085.622070 1588.290161,1086.833008 
	C1588.290161,1083.176880 1588.290161,1079.702637 1588.290161,1075.345093 
	C1592.137451,1074.922363 1596.005859,1074.429565 1599.887085,1074.082642 
	C1617.260620,1072.529419 1625.002441,1064.957520 1626.147705,1047.527344 
	C1626.973755,1034.953857 1627.575073,1022.339966 1627.593628,1009.743042 
	C1627.717529,925.435303 1627.713501,841.127258 1627.573486,756.819580 
	C1627.559326,748.233398 1626.739990,739.601624 1625.643066,731.074768 
	C1623.846191,717.106995 1618.162109,711.154846 1604.487793,708.352783 
	C1599.077026,707.244019 1593.547119,706.717712 1587.934326,705.906311 
	C1587.934326,701.798523 1587.934326,698.536987 1587.934326,694.759460 
	C1690.749390,696.160706 1793.421997,697.088501 1897.406250,694.880676 
	C1896.866333,716.399902 1894.819092,738.310425 1894.429077,760.258728 
	C1894.034424,782.466858 1894.342041,804.687500 1894.342041,827.501831 
	C1891.034180,827.501831 1886.872681,827.501831 1882.624023,827.501831 
	C1879.660522,814.911987 1877.286499,802.242065 1873.640381,789.949402 
	C1868.335938,772.066040 1861.082397,755.042175 1848.718262,740.563843 
	C1830.854370,719.645264 1808.447632,708.438049 1780.876221,708.174805 
	C1772.934082,708.098999 1764.943359,708.627258 1757.046143,709.513000 
	C1748.072876,710.519470 1743.748901,714.941284 1741.910889,724.118896 
	C1741.137817,727.979370 1740.416626,731.936157 1740.408081,735.850708 
	C1740.306030,782.836365 1740.334839,829.822266 1740.365234,876.808105 
	C1740.366699,879.056396 1740.702637,881.304443 1740.879883,883.516357 
	C1780.147583,883.112000 1802.082642,863.272156 1820.411621,811.797302 
	C1824.463135,811.797302 1828.636108,811.797302 1833.426392,811.797302 
	C1831.409058,863.947144 1831.570679,915.563354 1835.546753,967.614868 
	C1831.094238,967.614868 1827.190430,967.614868 1822.379761,967.614868 
	C1820.316528,960.978760 1818.625610,953.631714 1815.788940,946.757446 
	C1805.302734,921.346313 1787.940308,903.282104 1760.213501,897.223938 
	C1754.153076,895.899780 1747.807129,895.881653 1740.924683,895.195435 
	C1740.698608,898.445557 1740.366699,901.006042 1740.364990,903.566772 
	C1740.333618,950.552612 1740.144287,997.539612 1740.425293,1044.523804 
	C1740.566528,1068.165894 1747.348267,1072.581909 1768.801514,1073.251953 
	C1775.459717,1073.459961 1782.135620,1073.104980 1788.793457,1073.317383 
	C1810.062134,1073.995972 1827.345581,1065.028076 1842.781982,1051.394775 
	C1866.173706,1030.735718 1877.908691,1003.535522 1885.881836,974.296570 
	C1888.662109,964.101074 1890.806641,953.732178 1893.401978,942.763794 
	C1897.299072,942.763794 1901.379639,942.763794 1906.342041,942.763794 
	C1906.342041,980.083313 1906.342041,1017.291870 1906.342285,1055.449707 
z"/>
<path fill="#000000" opacity="1.000000" stroke="none" 
	d="
M2340.000000,622.100464 
	C2279.467773,622.100464 2219.935547,622.100464 2159.974854,622.100464 
	C2159.855469,619.435669 2159.723145,616.482910 2159.565674,612.973083 
	C2165.528320,611.987122 2171.283936,611.007629 2177.049072,610.088318 
	C2186.804443,608.532837 2192.761475,602.805359 2194.039307,593.156250 
	C2195.295898,583.667053 2196.206787,574.052917 2196.225830,564.491516 
	C2196.390869,481.518677 2196.390869,398.545227 2196.223145,315.572388 
	C2196.204590,306.341248 2195.422119,297.017395 2193.943359,287.907074 
	C2192.067871,276.349731 2186.354004,271.420135 2174.702393,269.581207 
	C2169.867920,268.818176 2165.001953,268.253265 2159.954102,267.571747 
	C2159.954102,264.259735 2159.954102,261.357819 2159.954102,257.863281 
	C2256.004883,257.863281 2351.759277,257.863281 2447.933838,257.863281 
	C2447.022949,298.630127 2446.108643,339.541382 2445.185303,380.867554 
	C2441.949707,380.867554 2438.418945,380.867554 2434.512451,380.867554 
	C2432.861816,373.175964 2431.368164,365.787628 2429.681396,358.443665 
	C2426.024170,342.521790 2420.789062,327.216003 2412.435303,313.038849 
	C2393.182129,280.363617 2364.072998,267.183533 2327.039551,269.451385 
	C2326.051025,269.511932 2325.077881,269.958832 2324.095459,269.966064 
	C2308.781494,270.079163 2302.470947,277.078033 2302.377197,292.191620 
	C2302.092041,338.161560 2301.947021,384.132385 2301.774170,430.102936 
	C2301.771973,430.725067 2302.120117,431.348450 2302.586670,432.922424 
	C2319.414307,434.406494 2334.059570,429.006226 2346.540527,417.541290 
	C2360.301514,404.901093 2369.908691,389.585205 2374.884033,371.472809 
	C2375.404053,369.579651 2376.115723,367.739258 2376.815918,365.643616 
	C2380.881592,365.643616 2384.805176,365.643616 2389.027344,365.643616 
	C2386.445557,414.726715 2387.507324,463.414642 2390.700195,512.652893 
	C2387.870361,512.929382 2385.991699,513.175171 2384.105469,513.278381 
	C2382.464111,513.368225 2380.814209,513.297119 2378.614502,513.297119 
	C2369.137695,472.800018 2347.889404,445.260712 2301.678955,444.267517 
	C2301.678955,447.723053 2301.678955,450.974030 2301.678955,454.224976 
	C2301.678955,494.212036 2301.649658,534.199158 2301.710693,574.186096 
	C2301.719727,580.170349 2301.879639,586.179993 2302.448730,592.132202 
	C2303.511719,603.252014 2309.063721,609.363770 2320.170166,609.904968 
	C2333.347412,610.547119 2346.665527,610.822449 2359.774414,609.630310 
	C2372.267822,608.494080 2382.942383,601.810547 2392.799561,594.203552 
	C2409.010498,581.693298 2419.969727,565.231812 2428.045654,546.703003 
	C2435.629639,529.303162 2440.266602,511.019287 2443.796875,492.426666 
	C2444.033447,491.180695 2444.451416,489.969208 2444.851318,488.497925 
	C2449.060303,488.497925 2452.922119,488.497925 2457.233643,488.497925 
	C2455.137695,533.228210 2455.497314,577.504517 2459.309326,622.436096 
	C2446.163086,625.132690 2433.068115,621.280518 2419.967773,621.954590 
	C2407.006348,622.621582 2393.983887,622.100525 2380.988037,622.100525 
	C2367.658691,622.100525 2354.329346,622.100464 2340.000000,622.100464 
z"/>
<path fill="#000000" opacity="1.000000" stroke="none" 
	d="
M1646.916016,417.078491 
	C1666.153320,437.341919 1684.890625,457.105103 1704.755249,478.057251 
	C1705.172729,474.515930 1705.621826,472.473694 1705.623657,470.431061 
	C1705.663940,426.104675 1706.048340,381.772614 1705.416260,337.455200 
	C1705.224365,324.001953 1702.694946,310.500610 1700.321777,297.184296 
	C1698.213257,285.352386 1690.055054,278.025208 1679.000610,274.229736 
	C1670.908813,271.451477 1662.543457,269.469757 1653.967651,267.038788 
	C1653.967651,264.297485 1653.967651,261.383942 1653.967651,257.874756 
	C1687.620605,257.874756 1721.049072,257.874756 1755.195679,257.874756 
	C1755.397339,260.814240 1755.592407,263.657959 1755.760864,266.113983 
	C1754.971191,266.931122 1754.622070,267.476410 1754.123901,267.759094 
	C1753.560059,268.079010 1752.869507,268.192566 1752.222534,268.346405 
	C1730.062012,273.615540 1720.836670,288.891083 1719.853760,310.404816 
	C1719.232422,324.004852 1718.432373,337.614716 1718.411987,351.221222 
	C1718.281494,437.874207 1718.345703,524.527466 1718.345703,611.180603 
	C1718.345703,614.805481 1718.345703,618.430298 1718.345703,622.704163 
	C1715.574097,622.868835 1713.384155,623.112854 1711.194824,623.107605 
	C1704.611816,623.091858 1697.990479,622.506348 1691.457275,623.039551 
	C1685.175049,623.552307 1680.648560,622.868896 1675.843018,617.471313 
	C1652.415649,591.156860 1628.211182,565.536133 1604.421387,539.542053 
	C1577.504639,510.131042 1550.795410,480.530090 1523.884277,451.113983 
	C1503.925537,429.297211 1483.781860,407.649719 1463.737915,385.910767 
	C1460.903931,382.837158 1458.168945,379.672363 1453.676025,374.627228 
	C1453.676025,379.411621 1453.676025,381.899414 1453.676025,384.387207 
	C1453.676147,437.712219 1453.440063,491.039062 1453.854858,544.360840 
	C1453.949463,556.529663 1455.691284,568.784363 1457.762695,580.812256 
	C1459.971069,593.635559 1468.117676,602.136658 1480.521851,606.144409 
	C1488.396240,608.688660 1496.430054,610.739075 1505.094604,613.211304 
	C1505.094604,615.735840 1505.094604,618.901489 1505.094604,622.682373 
	C1471.648315,622.682373 1438.257324,622.682373 1404.138794,622.682373 
	C1403.967529,619.506714 1403.796509,616.338867 1403.602295,612.737061 
	C1405.862549,612.042236 1407.688843,611.424377 1409.545654,610.918823 
	C1427.022095,606.160706 1436.192505,594.236267 1438.169678,576.729797 
	C1439.394653,565.882874 1440.209106,554.926575 1440.232666,544.017273 
	C1440.402954,465.363251 1440.379517,386.708557 1440.231323,308.054443 
	C1440.217651,300.805847 1439.259521,293.502869 1438.108032,286.326538 
	C1436.607056,276.972900 1430.250122,271.986786 1421.355957,270.151215 
	C1415.860962,269.017151 1410.254150,268.424042 1404.169189,267.508575 
	C1404.169189,264.548950 1404.169189,261.397614 1404.169189,258.082245 
	C1411.331177,258.082245 1418.200195,258.149109 1425.067627,258.069550 
	C1445.040405,257.838165 1465.019165,257.767090 1484.981201,257.159607 
	C1491.751587,256.953552 1496.852051,258.477539 1501.674927,263.646362 
	C1530.272583,294.295563 1559.177124,324.658539 1588.000366,355.097046 
	C1601.031860,368.858948 1614.115356,382.571564 1627.172241,396.309509 
	C1633.590332,403.062378 1640.001465,409.821838 1646.916016,417.078491 
z"/>
<path fill="#000000" opacity="1.000000" stroke="none" 
	d="
M1971.398193,360.521484 
	C2001.391479,392.185333 2030.704346,423.517365 2060.492920,454.390259 
	C2067.612793,461.769165 2076.319336,467.617249 2084.296143,474.169342 
	C2083.837402,474.962006 2083.378418,475.754700 2082.919678,476.547363 
	C2083.164551,474.518555 2083.621338,472.489929 2083.623291,470.460907 
	C2083.663574,424.462738 2083.894287,378.462341 2083.477783,332.467896 
	C2083.379639,321.619904 2081.707520,310.667511 2079.616943,299.986755 
	C2077.075684,287.002686 2069.161621,277.871979 2056.294434,273.808960 
	C2048.428711,271.325226 2040.383057,269.410980 2032.015381,267.131287 
	C2032.015381,264.472931 2032.015381,261.545410 2032.015381,257.944641 
	C2065.462646,257.944641 2098.895752,257.944641 2133.171631,257.944641 
	C2133.359863,260.984009 2133.554443,264.124542 2133.744385,267.190308 
	C2132.001221,267.891754 2130.821533,268.572296 2129.554199,268.845581 
	C2109.279297,273.217407 2100.461182,287.273529 2098.473145,306.484314 
	C2097.210938,318.682739 2096.458008,330.990784 2096.435303,343.251434 
	C2096.268799,432.580994 2096.345703,521.911011 2096.345703,611.240906 
	C2096.345703,614.860901 2096.345703,618.480835 2096.345703,622.752258 
	C2093.190918,622.752258 2090.696289,622.770325 2088.202148,622.748657 
	C2082.240967,622.696899 2076.135010,621.787964 2070.356445,622.784790 
	C2063.770020,623.920959 2058.997070,622.793518 2054.441650,617.734741 
	C2037.982666,599.457520 2021.201538,581.470520 2004.582397,563.337219 
	C1988.409424,545.690918 1972.303345,527.983643 1956.135986,510.332306 
	C1936.389038,488.772644 1916.592651,467.258301 1896.848389,445.696381 
	C1880.453369,427.791870 1864.106567,409.843201 1847.729614,391.922119 
	C1843.045532,386.796417 1838.331299,381.698303 1832.551147,375.413513 
	C1832.169312,379.117035 1831.709717,381.508087 1831.707764,383.899536 
	C1831.666626,435.230865 1831.519531,486.563019 1831.793213,537.892944 
	C1831.856689,549.808044 1833.039551,561.752991 1834.323853,573.617432 
	C1836.285767,591.741638 1846.202637,603.400574 1864.021362,608.004456 
	C1870.125977,609.581848 1876.264771,611.026978 1883.238159,612.741577 
	C1883.390869,615.577087 1883.562012,618.755798 1883.770752,622.629578 
	C1850.097412,622.629578 1817.012695,622.629578 1782.945801,622.629578 
	C1782.708862,619.807556 1782.446655,616.683411 1782.134033,612.960999 
	C1785.468262,611.786194 1788.501587,610.686096 1791.555664,609.646729 
	C1805.088989,605.040894 1813.038574,595.359863 1815.524414,581.621033 
	C1817.169434,572.528809 1818.185059,563.189453 1818.206909,553.957642 
	C1818.405518,469.961395 1818.363647,385.964386 1818.232910,301.967865 
	C1818.224243,296.405579 1817.329224,290.753174 1816.117310,285.304871 
	C1814.075684,276.126404 1807.620483,271.461914 1798.622681,269.974609 
	C1793.436768,269.117432 1788.240967,268.319916 1782.710693,267.441711 
	C1782.710693,264.387054 1782.710693,261.513397 1782.710693,257.981415 
	C1785.368896,257.742798 1787.922485,257.319855 1790.476929,257.314423 
	C1814.428955,257.263275 1838.388306,257.618805 1862.329468,257.106567 
	C1871.039795,256.920227 1876.732910,259.509430 1882.623779,266.289642 
	C1896.798096,282.603851 1912.352783,297.713593 1927.227661,313.425629 
	C1941.861328,328.882996 1956.343506,344.483673 1971.398193,360.521484 
z"/>
<path fill="#000000" opacity="1.000000" stroke="none" 
	d="
M1232.328735,421.999817 
	C1232.328735,381.679626 1232.373779,342.359283 1232.272095,303.039368 
	C1232.259399,298.088684 1231.850342,293.072357 1230.972046,288.204254 
	C1229.039551,277.492493 1222.393555,271.391541 1211.628540,269.766357 
	C1206.762695,269.031738 1201.902588,268.259216 1196.710815,267.452759 
	C1196.710815,264.370483 1196.710815,261.495392 1196.710815,257.951569 
	C1256.002686,257.951569 1315.112305,257.951569 1374.945801,257.951569 
	C1374.945801,260.850281 1374.945801,263.938629 1374.945801,267.386505 
	C1369.249390,268.273468 1363.372192,268.891937 1357.633423,270.145172 
	C1346.372192,272.604462 1341.008179,278.540619 1339.961792,289.955231 
	C1339.114868,299.193756 1338.421997,308.485840 1338.409180,317.755219 
	C1338.292725,401.727020 1338.250488,485.699310 1338.479370,569.670654 
	C1338.502563,578.165039 1340.262695,586.683350 1341.560913,595.137756 
	C1342.900757,603.864258 1348.906494,608.231873 1357.009155,609.931519 
	C1362.814331,611.149109 1368.733032,611.825073 1375.132568,612.825867 
	C1375.132568,615.889893 1375.132568,619.031616 1375.132568,622.692078 
	C1315.833740,622.692078 1256.757202,622.692078 1196.882568,622.692078 
	C1196.675049,619.523376 1196.470581,616.401489 1196.245361,612.961853 
	C1202.949585,611.847168 1209.119141,610.890320 1215.261597,609.782898 
	C1223.295898,608.334351 1228.569580,603.624512 1230.115967,595.612122 
	C1231.300049,589.476990 1232.215088,583.177490 1232.235107,576.947876 
	C1232.400635,525.632324 1232.328735,474.315948 1232.328735,421.999817 
z"/>
<path fill="#ffffff" opacity="1.000000" stroke="none" 
	d="
M840.980835,746.997559 
	C785.909302,822.243958 731.280579,896.924988 675.875183,972.667847 
	C598.806763,867.322937 522.396545,762.877869 445.427185,657.668396 
	C522.018005,552.975525 598.582214,448.318878 675.872620,342.669647 
	C753.083008,448.204102 829.521912,552.684082 906.301575,657.629822 
	C884.603882,687.328796 863.013733,716.880554 840.980835,746.997559 
z"/>
<path fill="#ffffff" opacity="1.000000" stroke="none" 
	d="
M2710.039795,306.150269 
	C2717.489502,338.791168 2718.174072,370.521759 2708.243896,401.987976 
	C2700.713379,425.849701 2685.058105,437.063873 2658.248047,438.131104 
	C2652.052979,438.377716 2645.873779,439.018646 2639.021729,439.527588 
	C2638.738281,436.053528 2638.354004,433.518555 2638.351562,430.983215 
	C2638.313721,390.727386 2638.228271,350.471069 2638.410400,310.216003 
	C2638.444580,302.638550 2639.323975,295.032532 2640.280518,287.498993 
	C2641.882812,274.878937 2648.610840,268.888702 2661.433838,268.084900 
	C2685.440674,266.580109 2700.350342,276.667480 2708.094482,299.675964 
	C2708.725586,301.550964 2709.241211,303.464783 2710.039795,306.150269 
z"/>
</svg>