  <svg version="1.1" id="Layer_1" xmlns="http://www.w3.org/2000/svg" xmlns:xlink="http://www.w3.org/1999/xlink" x="0px" y="0px"
	 width="60" viewBox="0 0 2828 2164" enable-background="new 0 0 2828 2164" xml:space="preserve">
<path fill="var(--logobg)" opacity="1.000000" stroke="none" 
	d="
M2.000000,1720.000000 
	C2.000000,1147.407715 2.000000,574.815430 2.000000,2.111566 
	C944.469849,2.111566 1886.939819,2.111566 2830.000000,2.111566 
	C2830.000000,574.061707 2830.000000,1146.123657 2829.121582,1719.429443 
	C2824.244385,1720.701660 2820.245850,1720.755005 2816.247070,1720.755005 
	C2314.348633,1720.758667 1812.450317,1720.757812 1310.552002,1720.766235 
	C1305.887939,1720.766357 1301.223999,1720.886230 1295.624756,1720.717041 
	C1291.694946,1720.419556 1288.700195,1720.298584 1285.705566,1720.298340 
	C1074.614258,1720.287964 863.522888,1720.284180 652.431519,1720.312256 
	C649.126160,1720.312744 645.820862,1720.715454 641.912598,1720.838745 
	C640.509949,1720.844971 639.710205,1720.942749 637.922791,1720.934082 
	C635.938416,1720.779907 634.941833,1720.690552 633.945190,1720.690430 
	C522.832764,1720.676147 411.720276,1720.663574 300.607819,1720.691895 
	C297.975983,1720.692627 295.344269,1721.159058 291.763245,1721.098511 
	C286.488281,1720.676025 282.162689,1720.465942 277.837006,1720.464966 
	C189.878204,1720.445923 101.919395,1720.456909 13.960596,1720.432129 
	C9.973691,1720.431030 5.986864,1720.150391 2.000000,1720.000000 
M1725.245117,1287.765381 
	C1676.702515,1178.610840 1628.160034,1069.456421 1579.414307,959.845154 
	C1492.503662,961.886658 1405.746460,964.042236 1318.964233,960.491150 
	C1318.964233,966.616882 1318.964233,971.818970 1318.964233,976.916992 
	C1329.934448,978.698547 1340.434692,980.143005 1350.825317,982.154114 
	C1365.316895,984.959167 1374.379639,993.809265 1378.049316,1008.102356 
	C1378.875122,1011.319092 1379.824585,1014.577759 1380.047729,1017.862549 
	C1380.949829,1031.142334 1382.204224,1044.438965 1382.229248,1057.731323 
	C1382.412476,1154.724365 1382.365356,1251.718018 1382.313110,1348.711426 
	C1382.291016,1389.707764 1382.427734,1430.709473 1381.780518,1471.697510 
	C1381.534058,1487.305176 1379.739014,1502.935059 1377.864502,1518.460083 
	C1374.252075,1548.379639 1358.124023,1567.891479 1328.565308,1575.655029 
	C1325.374512,1576.492920 1322.242432,1577.554321 1318.994141,1578.539062 
	C1318.994141,1584.443115 1318.994141,1589.952393 1318.994141,1595.975952 
	C1377.600220,1592.555786 1435.674561,1593.615234 1493.556885,1596.036743 
	C1493.556885,1589.474731 1493.556885,1584.222656 1493.556885,1578.632812 
	C1491.602173,1578.265381 1490.001221,1578.051514 1488.445679,1577.658447 
	C1475.556152,1574.402832 1462.452393,1571.796265 1449.841919,1567.680908 
	C1429.300415,1560.977295 1416.623657,1546.244019 1410.706665,1525.643677 
	C1409.425049,1521.181519 1408.601807,1516.565063 1407.868042,1511.971680 
	C1403.592285,1485.208618 1403.423462,1458.188110 1403.391846,1431.204102 
	C1403.235962,1298.213379 1403.275513,1165.222290 1403.268188,1032.231323 
	C1403.268066,1029.380737 1403.531982,1026.530273 1403.672729,1023.679688 
	C1404.217529,1023.541565 1404.762207,1023.403442 1405.307007,1023.265381 
	C1489.100098,1214.042358 1572.893188,1404.819336 1656.487915,1595.144775 
	C1662.075439,1595.144775 1666.640747,1595.144775 1671.270630,1595.144775 
	C1742.880615,1412.142456 1814.321045,1229.573730 1885.761475,1047.005005 
	C1886.456543,1047.161011 1887.151611,1047.317017 1887.846680,1047.473022 
	C1887.846680,1049.008179 1887.846802,1050.543335 1887.846558,1052.078491 
	C1887.830688,1203.734863 1887.852295,1355.391357 1887.710938,1507.047607 
	C1887.702026,1516.682251 1886.910645,1526.379761 1885.645386,1535.937134 
	C1882.473877,1559.893921 1873.071045,1569.854614 1849.313110,1574.317261 
	C1838.271851,1576.391113 1827.039062,1577.446655 1815.390259,1579.032349 
	C1815.199951,1581.661377 1814.870850,1584.256470 1814.861938,1586.852783 
	C1814.851807,1589.761475 1815.131592,1592.671387 1815.312134,1596.090454 
	C1921.730225,1592.929199 2027.536865,1593.069214 2133.418457,1596.057495 
	C2133.418457,1589.713745 2133.418457,1584.251221 2133.418457,1578.976807 
	C2122.947510,1577.377075 2113.099121,1575.993530 2103.294678,1574.347290 
	C2086.484131,1571.524414 2076.354736,1561.400024 2073.889404,1544.779907 
	C2071.844238,1530.994507 2070.354980,1516.983887 2070.309570,1503.067627 
	C2070.001221,1408.074951 2070.135498,1313.080933 2070.135742,1218.087280 
	C2070.135986,1162.091064 2069.955078,1106.093628 2070.310791,1050.099609 
	C2070.393066,1037.169312 2071.832520,1024.183228 2073.551514,1011.343872 
	C2075.817871,994.418945 2086.135010,984.730835 2102.875977,981.889404 
	C2112.967773,980.176514 2123.088867,978.636353 2133.464355,976.975769 
	C2133.464355,971.455811 2133.464355,966.006348 2133.464355,960.852234 
	C2054.320801,961.521118 1975.760010,962.185059 1896.656616,962.853638 
	C1847.772095,1088.579346 1798.850586,1214.400391 1749.281982,1341.885864 
	C1740.952271,1323.133423 1733.406006,1306.144775 1725.245117,1287.765381 
M2312.976318,221.386642 
	C2266.146240,220.732101 2219.315918,220.077545 2172.584961,219.424393 
	C2172.584961,225.190811 2172.584961,230.342072 2172.584961,235.050201 
	C2182.480957,236.675247 2191.650879,238.143600 2200.807129,239.692978 
	C2216.614990,242.367981 2225.686279,252.184662 2228.059326,267.527130 
	C2230.037109,280.314514 2231.409668,293.326569 2231.506836,306.250702 
	C2231.892578,357.572052 2231.677246,408.897949 2231.677246,460.222168 
	C2231.677246,548.539856 2231.825928,636.858032 2231.509521,725.174622 
	C2231.459717,739.093079 2229.960449,753.102600 2227.919922,766.890747 
	C2225.878662,780.683716 2217.518799,789.618408 2203.427246,792.466187 
	C2200.497559,793.058228 2197.581055,793.751770 2194.626465,794.176086 
	C2187.174316,795.246216 2179.703613,796.189575 2172.108887,797.201294 
	C2172.183105,803.123596 2170.809570,808.383057 2173.074707,813.190918 
	C2269.385498,810.451355 2365.207520,810.440979 2461.049805,813.168640 
	C2461.049805,807.253296 2461.049805,802.134399 2461.049805,797.249695 
	C2450.810303,795.754700 2441.251709,794.613647 2431.792236,792.918396 
	C2417.430420,790.344604 2408.369873,781.503418 2405.893799,767.350281 
	C2403.724365,754.949158 2402.249268,742.259399 2402.175293,729.687134 
	C2401.802246,666.367188 2401.981445,603.043945 2402.004395,539.721863 
	C2402.005127,537.182068 2402.384521,534.642456 2402.612793,531.787354 
	C2416.237061,531.787354 2429.208984,531.555298 2442.168701,531.849731 
	C2456.385010,532.172668 2468.108154,538.157959 2476.185791,549.816589 
	C2480.879639,556.591675 2484.767334,564.093079 2487.952881,571.712769 
	C2496.080811,591.155884 2500.647461,611.657715 2503.951416,632.386230 
	C2509.505615,667.233154 2514.405029,702.184753 2520.011963,737.022766 
	C2527.670410,784.610901 2551.884766,810.157837 2599.183350,820.329712 
	C2631.845215,827.353821 2664.640381,826.659973 2697.472656,820.734436 
	C2723.343018,816.065369 2746.263184,805.513611 2766.070068,788.243042 
	C2768.991699,785.695435 2771.708008,782.912354 2774.053467,780.681519 
	C2770.261475,776.554138 2767.172852,773.192383 2763.901367,769.631836 
	C2761.217041,771.421448 2758.836426,773.158875 2756.317139,774.664062 
	C2737.885254,785.676880 2718.663330,779.724304 2710.063477,760.096619 
	C2707.540039,754.336975 2705.341309,748.296875 2704.038574,742.163513 
	C2697.125732,709.615356 2689.895508,677.113586 2684.002197,644.374939 
	C2675.277588,595.910156 2647.608398,564.328064 2601.783691,547.557251 
	C2575.307373,537.867615 2547.908203,532.891785 2520.044678,529.821350 
	C2516.958008,529.481201 2513.889893,528.974670 2510.812988,528.545288 
	C2513.108398,526.487183 2515.239990,526.230652 2517.368652,525.949524 
	C2546.470947,522.104980 2575.105225,516.405884 2602.734619,506.069489 
	C2667.414062,481.872101 2709.538574,424.897125 2703.891357,352.933167 
	C2701.145752,317.945496 2686.769531,288.995697 2658.775635,267.248566 
	C2642.805420,254.842056 2624.822266,246.313446 2605.778809,239.921768 
	C2564.305176,226.001785 2521.323730,220.792969 2477.920166,220.344788 
	C2423.610596,219.783981 2369.282959,220.957489 2312.976318,221.386642 
M641.455688,986.653442 
	C641.455688,977.812073 641.455688,968.970703 641.455688,960.356445 
	C634.648315,960.356445 628.433105,960.356445 622.102722,960.356445 
	C621.349609,965.471008 621.035889,970.170044 619.918091,974.669250 
	C617.442383,984.634216 615.474670,994.874146 611.595093,1004.300293 
	C607.601379,1014.003723 600.677368,1016.052856 591.144226,1011.682861 
	C586.376648,1009.497375 582.030273,1006.208801 577.845642,1002.964783 
	C543.539307,976.369873 505.420746,958.368225 462.355347,951.488159 
	C429.902710,946.303589 397.350098,946.718567 364.698395,949.503357 
	C309.730194,954.191650 258.315094,969.911499 211.023132,998.446106 
	C156.728531,1031.205933 116.198074,1076.443848 89.374931,1133.927002 
	C72.003448,1171.154785 62.590313,1210.363281 59.477821,1251.274414 
	C55.653103,1301.547363 58.953960,1351.255981 72.569992,1399.812500 
	C98.384750,1491.870850 155.511230,1555.350342 246.649536,1586.835083 
	C283.738770,1599.647949 322.119415,1605.611206 361.162842,1608.057983 
	C394.624664,1610.155151 427.744690,1608.804565 460.245819,1599.669556 
	C491.743042,1590.816528 521.830627,1578.409546 551.397705,1564.504150 
	C564.307739,1558.432617 577.580566,1552.842285 591.172546,1548.574219 
	C615.343689,1540.984253 624.508545,1546.128174 632.109253,1570.410889 
	C634.664978,1578.575806 635.932861,1587.143799 637.856995,1595.832764 
	C643.290588,1595.832764 648.794250,1595.832764 655.111450,1595.832764 
	C655.111450,1592.061401 655.111511,1588.778931 655.111511,1585.496460 
	C655.111328,1545.503418 655.010193,1505.509888 655.146362,1465.517334 
	C655.237183,1438.859131 655.385986,1412.194458 656.110657,1385.548950 
	C656.334412,1377.322754 658.155396,1369.065308 659.943237,1360.976562 
	C661.817932,1352.494629 667.651001,1347.095825 675.810059,1344.480835 
	C680.812256,1342.877563 686.004089,1341.866089 691.401123,1340.516113 
	C691.401123,1334.856079 691.401123,1329.382690 691.401123,1323.207397 
	C588.065369,1327.265625 485.279358,1326.060303 382.528625,1323.246460 
	C382.528625,1329.693359 382.528625,1335.144043 382.528625,1340.667114 
	C393.428131,1341.823608 403.675476,1342.787354 413.890900,1344.016602 
	C450.072418,1348.370361 465.786072,1364.133301 470.006805,1400.147217 
	C470.045593,1400.478149 470.067047,1400.811035 470.097717,1401.142822 
	C474.528625,1449.042480 472.620697,1497.046631 471.753571,1544.989136 
	C471.337433,1567.995605 458.046112,1582.891113 435.412048,1587.839844 
	C393.038330,1597.104614 356.971039,1585.625732 328.430786,1552.564087 
	C307.097137,1527.850586 294.841736,1498.467773 285.877045,1467.503662 
	C274.138214,1426.957520 269.118073,1385.323486 266.784485,1343.378784 
	C263.202759,1278.999390 264.353973,1214.841064 277.855835,1151.378296 
	C285.745575,1114.294312 297.673523,1078.917114 318.342621,1046.799438 
	C346.914124,1002.402344 385.662262,975.634094 440.115967,975.571899 
	C496.765930,975.507202 542.958374,997.158508 577.690125,1042.186523 
	C594.135437,1063.507080 602.398987,1088.534180 607.650269,1114.446655 
	C612.263245,1137.209473 615.353271,1160.281128 619.213501,1183.811279 
	C625.076904,1183.811279 631.538940,1183.811279 638.690491,1183.811279 
	C638.690491,1179.698730 638.645386,1176.093506 638.697205,1172.489624 
	C639.579285,1111.178589 640.473511,1049.867554 641.455688,986.653442 
M983.000061,962.234985 
	C899.122986,961.684021 815.245972,961.133057 731.152710,960.580688 
	C731.152710,966.443787 731.152710,971.902344 731.152710,977.030273 
	C741.022949,978.582703 750.214844,979.961060 759.382568,981.484802 
	C776.663025,984.356995 787.997253,991.500305 791.824463,1016.384216 
	C793.538513,1027.528564 794.214844,1038.934937 794.226135,1050.223389 
	C794.378540,1202.217407 794.370605,1354.211670 794.245605,1506.205688 
	C794.236877,1516.834717 793.535034,1527.530396 792.216309,1538.077637 
	C789.122437,1562.820190 780.244629,1571.706909 755.787659,1575.720703 
	C754.145996,1575.990234 752.471436,1576.052856 750.818237,1576.260010 
	C744.295105,1577.077271 737.774414,1577.914062 731.153320,1578.756226 
	C731.153320,1584.844482 731.153320,1590.298584 731.153320,1596.198486 
	C904.655029,1593.409546 1077.505737,1592.665161 1250.803223,1595.772705 
	C1244.307007,1517.816650 1243.601929,1440.410767 1247.100586,1363.091431 
	C1239.791260,1363.091431 1233.333740,1363.091431 1226.864136,1363.091431 
	C1221.692505,1391.354126 1215.244507,1418.531616 1205.785522,1444.910522 
	C1191.963623,1483.455688 1172.266602,1518.119141 1139.923218,1544.453979 
	C1119.333862,1561.218262 1096.722046,1573.646484 1069.679077,1574.921631 
	C1051.080933,1575.798462 1032.401245,1575.136841 1013.763306,1574.839233 
	C1009.160583,1574.765747 1004.528137,1573.655151 999.995911,1572.636353 
	C988.761230,1570.111206 981.573853,1563.039307 979.903259,1551.740356 
	C978.253479,1540.582153 977.120728,1529.236328 977.083801,1517.968506 
	C976.839966,1443.638672 976.953186,1369.307861 976.950012,1294.977295 
	C976.949890,1292.087402 976.950012,1289.197632 976.950012,1285.821167 
	C997.173096,1284.590454 1015.726685,1286.843140 1033.453003,1294.667969 
	C1059.155640,1306.014038 1077.534302,1325.256104 1091.703003,1348.932129 
	C1101.715332,1365.662964 1107.309814,1384.050659 1110.801758,1403.210571 
	C1117.957886,1403.210571 1124.686157,1403.210571 1131.791382,1403.210571 
	C1125.328369,1318.031250 1124.299805,1233.570923 1128.605957,1148.705078 
	C1121.098755,1148.705078 1114.874634,1148.705078 1108.443604,1148.705078 
	C1107.581177,1151.889526 1106.808228,1154.773560 1106.018921,1157.653076 
	C1096.496216,1192.390015 1078.204956,1221.676636 1050.527954,1244.700562 
	C1029.638550,1262.078125 1005.120789,1268.710083 977.459656,1266.926392 
	C977.272278,1263.542480 976.971375,1260.631714 976.970459,1257.720947 
	C976.947449,1184.390381 976.892578,1111.059692 977.035522,1037.729370 
	C977.054321,1028.086426 977.410095,1018.339294 978.847351,1008.827454 
	C981.320801,992.458008 989.332336,984.609741 1005.514038,982.325867 
	C1027.423584,979.233643 1049.466431,979.059204 1071.222900,983.254272 
	C1114.353027,991.570374 1146.227661,1016.277954 1169.148071,1052.989990 
	C1185.738647,1079.563721 1195.078003,1109.065308 1201.967041,1139.389771 
	C1204.671387,1151.293457 1206.879639,1163.309692 1209.299561,1175.204712 
	C1216.268311,1175.204712 1222.491577,1175.204712 1229.191772,1175.204712 
	C1224.411499,1103.290283 1228.502808,1031.966675 1232.812866,961.190002 
	C1149.516357,961.542419 1067.258179,961.890442 983.000061,962.234985 
M2429.902832,1219.000000 
	C2429.906250,1158.343018 2429.832764,1097.685669 2429.994873,1037.029175 
	C2430.019775,1027.734253 2430.627930,1018.374878 2431.855225,1009.163818 
	C2434.067383,992.561035 2442.319092,984.507996 2459.081055,982.208069 
	C2480.342041,979.290894 2501.735107,979.083984 2522.820068,982.978210 
	C2566.352539,991.018250 2598.634277,1015.699890 2621.857422,1052.703247 
	C2637.786133,1078.083740 2647.030029,1106.208984 2653.868164,1135.159424 
	C2656.993896,1148.392822 2659.459473,1161.782104 2662.342773,1175.671265 
	C2666.911133,1175.671265 2671.210693,1175.671265 2675.510010,1175.671265 
	C2677.425049,1175.671265 2679.340332,1175.671265 2682.050781,1175.671265 
	C2677.183105,1103.345337 2681.301514,1032.029785 2685.820801,960.539551 
	C2518.107910,963.485168 2351.324707,962.757935 2184.225586,959.986938 
	C2184.225586,966.252747 2184.225586,971.721497 2184.225586,976.971680 
	C2194.573242,978.645874 2204.372314,980.192383 2214.156982,981.822876 
	C2231.530762,984.718079 2241.402832,995.562378 2243.850098,1012.370178 
	C2246.001953,1027.149170 2247.425293,1042.178467 2247.451172,1057.100220 
	C2247.707275,1204.739380 2247.644775,1352.378906 2247.527588,1500.018433 
	C2247.518311,1511.662964 2246.848145,1523.347534 2245.744629,1534.942871 
	C2243.146240,1562.249390 2232.909912,1572.585693 2205.881104,1576.040771 
	C2198.705078,1576.958130 2191.520020,1577.805786 2184.273926,1578.693604 
	C2184.273926,1584.786377 2184.273926,1590.250244 2184.273926,1596.177246 
	C2357.650879,1593.429810 2530.448242,1592.634766 2703.752930,1595.801514 
	C2697.157715,1517.866455 2696.246826,1440.480347 2700.059570,1362.707031 
	C2692.858154,1362.707031 2686.652832,1362.707031 2680.135742,1362.707031 
	C2679.404785,1365.906738 2678.648438,1368.793579 2678.092041,1371.718506 
	C2673.235596,1397.254517 2666.860107,1422.384766 2657.962891,1446.833130 
	C2644.069336,1485.009399 2624.242432,1519.207153 2592.020996,1545.107422 
	C2571.894043,1561.285522 2549.858887,1573.250854 2523.540039,1574.844604 
	C2508.928711,1575.729248 2494.247314,1575.716797 2479.599854,1575.635254 
	C2472.299072,1575.594604 2464.947754,1574.868408 2457.718506,1573.787720 
	C2441.975830,1571.434326 2434.101318,1563.647583 2431.949707,1547.836792 
	C2430.696777,1538.629272 2430.018066,1529.271362 2429.998779,1519.979370 
	C2429.843750,1444.993408 2429.906982,1370.007080 2429.903564,1295.020874 
	C2429.903564,1292.112671 2429.903564,1289.204468 2429.903564,1285.860962 
	C2454.639160,1284.165527 2477.308838,1288.002686 2497.785889,1300.590820 
	C2532.998535,1322.237915 2552.892090,1354.644531 2561.903564,1394.354980 
	C2562.615967,1397.494751 2563.366455,1400.625732 2564.041748,1403.513916 
	C2571.125000,1403.513916 2577.329102,1403.513916 2584.610107,1403.513916 
	C2578.202148,1318.380371 2577.734619,1233.683838 2581.333984,1149.074463 
	C2573.921143,1149.074463 2567.456543,1149.074463 2560.926270,1149.074463 
	C2554.513428,1179.830566 2540.273682,1205.837646 2520.155029,1228.787964 
	C2504.371582,1246.792847 2485.415771,1259.813477 2461.704102,1264.875122 
	C2451.398926,1267.074829 2440.903320,1267.828491 2429.902832,1267.126709 
	C2429.902832,1250.950317 2429.902832,1235.975098 2429.902832,1219.000000 
M1993.875122,522.998901 
	C1994.215820,480.770660 1994.556396,438.542419 1994.899170,396.038208 
	C1989.028809,396.038208 1982.904419,396.038208 1976.737793,396.038208 
	C1970.556641,424.612274 1957.496948,448.994629 1938.552734,470.304718 
	C1928.946777,481.110077 1918.033447,490.285858 1904.901978,496.576172 
	C1889.040771,504.174011 1872.462891,507.569183 1854.209839,505.493195 
	C1854.209839,502.936829 1854.209717,500.995270 1854.209839,499.053741 
	C1854.216675,429.061157 1854.166748,359.068481 1854.307861,289.076172 
	C1854.323975,281.107300 1855.040405,273.091797 1856.080444,265.183197 
	C1858.154785,249.407761 1865.172363,241.869278 1881.135010,240.238831 
	C1895.333740,238.788544 1909.755737,237.983643 1923.988647,238.698135 
	C1966.999756,240.857254 2000.712769,260.903534 2026.462036,294.802063 
	C2041.569824,314.691223 2051.074707,337.470551 2057.778809,361.291779 
	C2063.165283,380.430084 2067.195312,399.950012 2071.908447,419.638855 
	C2077.623291,419.638855 2083.706299,419.638855 2088.655029,419.638855 
	C2088.543701,385.644958 2087.775146,352.343048 2088.510986,319.074463 
	C2089.244873,285.895447 2091.486816,252.749817 2093.094727,219.023071 
	C1936.775146,223.286545 1780.961182,220.844467 1624.634033,219.074753 
	C1624.634033,224.750076 1624.634033,229.884140 1624.634033,234.956741 
	C1634.546143,236.605896 1644.010498,238.110413 1653.448242,239.766739 
	C1668.765869,242.455078 1677.732300,251.916061 1680.231689,266.882751 
	C1682.143677,278.331879 1683.693726,290.005432 1683.712402,301.581848 
	C1683.943359,444.566284 1683.904297,587.551270 1683.774658,730.535950 
	C1683.765625,740.502930 1682.963989,750.529480 1681.702515,760.422729 
	C1678.979736,781.778442 1669.741943,790.916382 1648.577026,793.997131 
	C1640.738159,795.138123 1632.861816,796.022156 1624.691406,797.063049 
	C1624.691406,802.576599 1624.691406,807.694702 1624.691406,813.238647 
	C1786.707031,811.032227 1948.152466,809.977539 2109.201904,813.030518 
	C2107.736084,776.514221 2105.604492,740.608948 2105.045898,704.679199 
	C2104.483398,668.518066 2105.484619,632.332581 2105.802734,595.890625 
	C2099.913086,595.890625 2094.060547,595.890625 2088.436035,595.890625 
	C2084.173828,613.549194 2080.508057,630.809692 2075.800781,647.781372 
	C2067.484863,677.763550 2056.304688,706.648376 2037.718506,731.935486 
	C2018.409180,758.206543 1994.922241,780.013245 1962.969360,789.364624 
	C1934.051147,797.827881 1904.260376,795.727661 1874.848633,790.985962 
	C1863.630859,789.177307 1858.089600,780.547791 1856.367676,769.899841 
	C1855.096069,762.035645 1854.343872,753.997437 1854.326050,746.034607 
	C1854.165527,674.375854 1854.211304,602.716675 1854.239380,531.057617 
	C1854.240356,528.550537 1854.690918,526.043579 1854.948975,523.360718 
	C1881.434448,522.163574 1905.351562,527.416626 1926.392456,542.931213 
	C1951.804321,561.668701 1967.632935,586.870544 1975.799927,617.112427 
	C1977.257812,622.511047 1978.364990,628.004395 1979.592651,633.275391 
	C1986.172729,633.275391 1992.021973,633.275391 1998.082397,633.275391 
	C1996.669312,596.799316 1995.278442,560.898682 1993.875122,522.998901 
M600.710510,544.304382 
	C620.056702,565.453247 639.399048,586.605652 658.749756,607.750366 
	C719.727112,674.381165 780.751770,740.968750 841.585876,807.730042 
	C845.576721,812.109680 849.356018,813.950195 855.311707,813.352051 
	C864.572510,812.422058 873.934204,812.258789 883.254272,812.235291 
	C890.480835,812.217102 897.709167,812.909363 905.955872,813.338928 
	C905.955872,808.812744 905.955688,804.893860 905.955933,800.975037 
	C905.964783,653.321228 905.806030,505.667084 906.162537,358.014130 
	C906.216309,335.747009 907.886841,313.402954 910.218140,291.242645 
	C913.135986,263.507355 928.731323,245.639679 955.867432,238.213531 
	C959.018799,237.351120 962.128357,236.336121 965.111267,235.435944 
	C965.111267,229.780304 965.111267,224.610840 965.111267,218.929520 
	C910.635925,222.714188 856.783325,221.168884 802.479370,219.036911 
	C802.479370,224.899780 802.479370,230.313568 802.479370,234.643417 
	C816.817322,238.628677 830.456909,241.782089 843.657349,246.236755 
	C864.013062,253.106064 875.750732,267.989685 880.263000,288.792114 
	C884.950806,310.403809 886.071228,332.364899 886.141541,354.363129 
	C886.374939,427.355804 886.377441,500.349304 886.414917,573.342468 
	C886.415955,575.374268 885.810974,577.406250 885.478821,579.499512 
	C882.010742,576.226074 878.963806,573.620178 876.223145,570.724487 
	C767.169250,455.501709 658.118958,340.275574 549.204163,224.921387 
	C544.919006,220.382828 540.874817,218.943314 534.523254,219.144409 
	C503.224884,220.135300 471.901825,220.527924 440.585266,220.681305 
	C426.036438,220.752563 411.482605,219.800797 396.640564,219.303055 
	C396.640564,224.983459 396.640564,230.117081 396.640564,234.986008 
	C407.050323,236.721054 416.889832,238.150955 426.641235,240.036591 
	C440.585876,242.733093 449.265259,251.504578 451.797760,265.185486 
	C453.969482,276.917389 455.598785,288.947571 455.620453,300.849182 
	C455.853943,429.170563 455.864685,557.492981 455.521790,685.814026 
	C455.474762,703.421509 453.593781,721.065735 451.817200,738.617554 
	C448.850616,767.925964 433.611084,787.242676 404.418915,794.570312 
	C401.635223,795.269104 398.959015,796.396118 396.162170,797.348450 
	C396.411774,803.062378 394.943848,808.319092 397.228088,813.140564 
	C451.557404,810.018982 505.391266,810.995850 559.393188,813.174194 
	C559.393188,807.250000 559.393188,802.091614 559.393188,797.364746 
	C546.842041,794.202087 534.865723,791.495728 523.071289,788.148376 
	C497.451477,780.877075 483.542847,763.091492 480.040924,737.333069 
	C477.802307,720.866455 476.061462,704.192322 475.953430,687.599182 
	C475.365295,597.278503 475.350647,506.954071 475.163696,416.630920 
	C475.159241,414.473419 475.447632,412.315338 475.762024,407.845917 
	C518.084717,454.064270 558.919739,498.658051 600.710510,544.304382 
M1089.959839,477.000000 
	C1089.959839,454.546814 1089.959839,432.093658 1089.959839,409.640472 
	C1090.759033,409.253845 1091.558228,408.867249 1092.357422,408.480621 
	C1094.129517,410.802673 1095.735107,413.276978 1097.697998,415.424561 
	C1152.333496,475.197571 1207.004883,534.937866 1261.671265,594.682739 
	C1326.460815,665.491211 1391.308716,736.246948 1455.919800,807.218018 
	C1460.492065,812.240479 1464.949951,813.537659 1471.478271,813.278625 
	C1486.088501,812.698914 1500.742676,813.230896 1515.378906,813.283875 
	C1516.907715,813.289429 1518.437012,813.118958 1520.659790,812.989868 
	C1520.659790,808.398743 1520.659790,804.444702 1520.659790,800.490723 
	C1520.659790,658.517151 1520.601562,516.543518 1520.726929,374.570038 
	C1520.744385,354.915955 1521.097778,335.225220 1522.380981,315.622498 
	C1523.202393,303.072327 1525.268311,290.478607 1528.119141,278.216553 
	C1532.066040,261.238983 1542.871826,249.377060 1559.018921,242.710648 
	C1565.741455,239.935150 1572.708618,237.751831 1579.533203,235.310471 
	C1579.533203,229.845108 1579.533203,224.412323 1579.533203,218.870087 
	C1524.921997,222.927811 1471.071167,220.942368 1417.004639,219.127884 
	C1417.004639,225.150406 1417.004639,230.300003 1417.004639,234.738647 
	C1430.567871,238.359253 1443.553345,241.316559 1456.210205,245.314636 
	C1479.543091,252.685135 1491.953735,269.524628 1496.133667,293.160065 
	C1500.798096,319.534790 1501.373047,346.205261 1501.506470,372.840027 
	C1501.840332,439.492676 1501.643677,506.148010 1501.641846,572.802246 
	C1501.641846,574.952515 1501.442749,577.102783 1501.264893,580.701050 
	C1498.453491,578.075195 1496.741943,576.639404 1495.215942,575.027832 
	C1425.561401,501.460114 1355.922119,427.877960 1286.282837,354.295715 
	C1245.278076,310.969330 1204.267456,267.648590 1163.292114,224.294479 
	C1160.274902,221.102158 1157.597046,218.804352 1152.363525,218.921951 
	C1116.400513,219.730042 1080.425171,220.005646 1044.453003,220.385635 
	C1033.578491,220.500504 1022.701782,220.403412 1011.555298,220.403412 
	C1011.555298,225.124405 1011.555298,230.273560 1011.555298,235.169479 
	C1020.751953,236.557358 1029.388916,237.400635 1037.813477,239.224640 
	C1057.385498,243.462204 1065.398926,251.585678 1067.946777,271.233490 
	C1069.653931,284.397736 1070.316162,297.777618 1070.357666,311.064453 
	C1070.582031,383.050354 1070.515991,455.037354 1070.453491,527.023926 
	C1070.404297,583.679138 1070.500122,640.337280 1069.901855,696.987488 
	C1069.737061,712.580444 1067.882080,728.226074 1065.798462,743.712402 
	C1062.412476,768.879211 1048.358276,785.593811 1023.923645,793.234436 
	C1019.839966,794.511292 1015.721069,795.675659 1011.498352,796.927612 
	C1011.498352,802.453003 1011.498352,807.650574 1011.498352,813.122437 
	C1065.897583,810.109253 1119.722656,810.885315 1173.920654,813.217285 
	C1173.920654,807.337524 1173.920654,801.944458 1173.920654,797.739502 
	C1159.131714,793.625671 1145.162964,790.452698 1131.697510,785.817017 
	C1114.173462,779.784058 1102.854614,767.150696 1097.737549,749.280823 
	C1096.095459,743.546631 1094.389404,737.667358 1093.993530,731.768433 
	C1092.389038,707.852600 1090.384888,683.911377 1090.169067,659.964722 
	C1089.625244,599.647461 1089.970825,539.322083 1089.959839,477.000000 
M288.401093,375.000183 
	C288.406372,351.672668 288.041962,328.336853 288.562622,305.020874 
	C288.851593,292.080200 290.087219,279.099121 291.860382,266.269531 
	C293.852173,251.858170 302.627167,242.946838 316.969971,240.117798 
	C327.013458,238.136734 337.165497,236.706238 347.657166,234.965469 
	C347.657166,229.849762 347.657166,224.701889 347.657166,218.853058 
	C251.090485,222.283112 155.031891,221.781693 59.022385,219.031204 
	C59.022385,225.244202 59.022385,230.376678 59.022385,235.007599 
	C69.614830,236.767242 79.492157,238.158112 89.262070,240.091690 
	C102.749664,242.761047 111.323845,251.280121 113.931824,264.512787 
	C116.171982,275.879150 117.829796,287.576782 117.850014,299.131287 
	C118.103691,444.093811 118.052452,589.057007 117.915802,734.019897 
	C117.907043,743.312256 117.183853,752.711731 115.611183,761.858093 
	C114.508980,768.268311 112.249306,774.829956 108.986511,780.439819 
	C103.480278,789.906921 93.447655,792.377380 83.393661,793.922974 
	C75.261757,795.172974 67.076103,796.073364 59.037441,797.112976 
	C59.037441,802.881897 59.037441,808.010681 59.037441,813.195984 
	C155.578674,810.487061 251.407974,810.400757 347.614807,813.180237 
	C347.614807,807.516968 347.614807,802.387146 347.614807,797.037842 
	C338.570526,795.891846 329.984222,795.117920 321.514282,793.665466 
	C303.799744,790.627808 294.763367,782.500366 291.943359,764.638977 
	C289.669434,750.236389 288.583038,735.502930 288.549438,720.912598 
	C288.285431,606.275635 288.401917,491.637787 288.401093,375.000183 
z"/>
    <!-- the big one -->
<path fill="var(--color-4)" opacity="1.000000" stroke="none" 
	d="
M1296.559937,1720.950073 
	C1301.223999,1720.886230 1305.887939,1720.766357 1310.552002,1720.766235 
	C1812.450317,1720.757812 2314.348633,1720.758667 2816.247070,1720.755005 
	C2820.245850,1720.755005 2824.244385,1720.701660 2829.121582,1720.336670 
	C2830.000000,1868.602051 2830.000000,2017.204102 2830.000000,2166.000000 
	C2319.286621,2166.000000 1808.573364,2166.000000 1297.003296,2165.064941 
	C1296.154663,2020.722412 1296.159546,1877.314819 1296.187500,1733.907104 
	C1296.188232,1729.588135 1296.430298,1725.269043 1296.559937,1720.950073 
z"/>
    <!--the second-->
<path fill="var(--color-2)" opacity="1.000000" stroke="none" 
	d="
M292.712524,1721.408447 
	C295.344269,1721.159058 297.975983,1720.692627 300.607819,1720.691895 
	C411.720276,1720.663574 522.832764,1720.676147 633.945190,1720.690430 
	C634.941833,1720.690552 635.938416,1720.779907 637.816895,1721.563477 
	C638.676453,1723.592896 638.654236,1724.886230 638.327881,1727.040771 
	C637.959473,1731.891357 637.839111,1735.880981 637.838806,1739.870605 
	C637.829041,1877.923462 637.829224,2015.976196 637.837769,2154.029053 
	C637.838013,2158.019287 637.943542,2162.009766 638.000000,2166.000000 
	C523.291565,2166.000000 408.583099,2166.000000 293.035095,2165.066650 
	C292.216095,2020.879517 292.232635,1877.625732 292.276215,1734.371948 
	C292.277527,1730.050781 292.560760,1725.729614 292.712524,1721.408447 
z"/>
    <!--the third-->
<path fill="var(--color-3)" opacity="1.000000" stroke="none" 
	d="
M638.631958,1726.179688 
	C638.654236,1724.886230 638.676453,1723.592896 638.804626,1721.670044 
	C639.710205,1720.942749 640.509949,1720.844971 642.565857,1721.201416 
	C647.478577,1721.745972 651.135010,1721.914307 654.791504,1721.914795 
	C757.033020,1721.928955 859.274536,1721.920288 961.516052,1721.948975 
	C965.368591,1721.950073 969.221069,1722.287109 974.000000,1722.511108 
	C974.000000,1871.062012 974.000000,2018.531006 974.000000,2166.000000 
	C863.291565,2166.000000 752.583069,2166.000000 640.780151,2165.073242 
	C639.657654,2160.154297 639.605530,2156.162354 639.605408,2152.170166 
	C639.601257,2013.761353 639.609253,1875.352539 639.561401,1736.943726 
	C639.560181,1733.355591 638.955322,1729.767700 638.631958,1726.179688 
z"/>
    <!--the last one-->
    
<path fill="var(--color-5)" opacity="1.000000" stroke="none" 
	d="
M974.937317,2166.000000 
	C974.000000,2018.531006 974.000000,1871.062012 974.000000,1722.511108 
	C969.221069,1722.287109 965.368591,1721.950073 961.516052,1721.948975 
	C859.274536,1721.920288 757.033020,1721.928955 654.791504,1721.914795 
	C651.135010,1721.914307 647.478577,1721.745972 643.168823,1721.293091 
	C645.820862,1720.715454 649.126160,1720.312744 652.431519,1720.312256 
	C863.522888,1720.284180 1074.614258,1720.287964 1285.705566,1720.298340 
	C1288.700195,1720.298584 1291.694946,1720.419556 1295.624756,1720.717041 
	C1296.430298,1725.269043 1296.188232,1729.588135 1296.187500,1733.907104 
	C1296.159546,1877.314819 1296.154663,2020.722412 1296.073242,2165.064941 
	C1189.291504,2166.000000 1082.583130,2166.000000 974.937317,2166.000000 
z"/>
    <!--first square-->
<path fill="var(--color-1)" opacity="1.000000" stroke="none" 
	d="
M291.763245,1721.098633 
	C292.560760,1725.729614 292.277527,1730.050781 292.276215,1734.371948 
	C292.232635,1877.625732 292.216095,2020.879517 292.097778,2165.066650 
	C195.448364,2166.000000 98.896736,2166.000000 2.000000,2166.000000 
	C2.000000,2017.958374 2.000000,1869.916504 2.000000,1720.937256 
	C5.986864,1720.150391 9.973691,1720.431030 13.960596,1720.432129 
	C101.919395,1720.456909 189.878204,1720.445923 277.837006,1720.464966 
	C282.162689,1720.465942 286.488281,1720.676025 291.763245,1721.098633 
z"/>
<path fill="none" opacity="1.000000" stroke="none" 
	d="
M638.327881,1727.040771 
	C638.955322,1729.767700 639.560181,1733.355591 639.561401,1736.943726 
	C639.609253,1875.352539 639.601257,2013.761353 639.605408,2152.170166 
	C639.605530,2156.162354 639.657654,2160.154297 639.842773,2165.073242 
	C640.000000,2166.000000 639.000000,2166.000000 638.500000,2166.000000 
	C637.943542,2162.009766 637.838013,2158.019287 637.837769,2154.029053 
	C637.829224,2015.976196 637.829041,1877.923462 637.838806,1739.870605 
	C637.839111,1735.880981 637.959473,1731.891357 638.327881,1727.040771 
z"/>
<path fill="var(--logotext)" opacity="1.000000" stroke="none" 
	d="
M1725.552490,1288.460693 
	C1733.406006,1306.144775 1740.952271,1323.133423 1749.281982,1341.885864 
	C1798.850586,1214.400391 1847.772095,1088.579346 1896.656616,962.853638 
	C1975.760010,962.185059 2054.320801,961.521118 2133.464355,960.852234 
	C2133.464355,966.006348 2133.464355,971.455811 2133.464355,976.975769 
	C2123.088867,978.636353 2112.967773,980.176514 2102.875977,981.889404 
	C2086.135010,984.730835 2075.817871,994.418945 2073.551514,1011.343872 
	C2071.832520,1024.183228 2070.393066,1037.169312 2070.310791,1050.099609 
	C2069.955078,1106.093628 2070.135986,1162.091064 2070.135742,1218.087280 
	C2070.135498,1313.080933 2070.001221,1408.074951 2070.309570,1503.067627 
	C2070.354980,1516.983887 2071.844238,1530.994507 2073.889404,1544.779907 
	C2076.354736,1561.400024 2086.484131,1571.524414 2103.294678,1574.347290 
	C2113.099121,1575.993530 2122.947510,1577.377075 2133.418457,1578.976807 
	C2133.418457,1584.251221 2133.418457,1589.713745 2133.418457,1596.057495 
	C2027.536865,1593.069214 1921.730225,1592.929199 1815.312134,1596.090454 
	C1815.131592,1592.671387 1814.851807,1589.761475 1814.861938,1586.852783 
	C1814.870850,1584.256470 1815.199951,1581.661377 1815.390259,1579.032349 
	C1827.039062,1577.446655 1838.271851,1576.391113 1849.313110,1574.317261 
	C1873.071045,1569.854614 1882.473877,1559.893921 1885.645386,1535.937134 
	C1886.910645,1526.379761 1887.702026,1516.682251 1887.710938,1507.047607 
	C1887.852295,1355.391357 1887.830688,1203.734863 1887.846558,1052.078491 
	C1887.846802,1050.543335 1887.846680,1049.008179 1887.846680,1047.473022 
	C1887.151611,1047.317017 1886.456543,1047.161011 1885.761475,1047.005005 
	C1814.321045,1229.573730 1742.880615,1412.142456 1671.270630,1595.144775 
	C1666.640747,1595.144775 1662.075439,1595.144775 1656.487915,1595.144775 
	C1572.893188,1404.819336 1489.100098,1214.042358 1405.307007,1023.265381 
	C1404.762207,1023.403442 1404.217529,1023.541565 1403.672729,1023.679688 
	C1403.531982,1026.530273 1403.268066,1029.380737 1403.268188,1032.231323 
	C1403.275513,1165.222290 1403.235962,1298.213379 1403.391846,1431.204102 
	C1403.423462,1458.188110 1403.592285,1485.208618 1407.868042,1511.971680 
	C1408.601807,1516.565063 1409.425049,1521.181519 1410.706665,1525.643677 
	C1416.623657,1546.244019 1429.300415,1560.977295 1449.841919,1567.680908 
	C1462.452393,1571.796265 1475.556152,1574.402832 1488.445679,1577.658447 
	C1490.001221,1578.051514 1491.602173,1578.265381 1493.556885,1578.632812 
	C1493.556885,1584.222656 1493.556885,1589.474731 1493.556885,1596.036743 
	C1435.674561,1593.615234 1377.600220,1592.555786 1318.994141,1595.975952 
	C1318.994141,1589.952393 1318.994141,1584.443115 1318.994141,1578.539062 
	C1322.242432,1577.554321 1325.374512,1576.492920 1328.565308,1575.655029 
	C1358.124023,1567.891479 1374.252075,1548.379639 1377.864502,1518.460083 
	C1379.739014,1502.935059 1381.534058,1487.305176 1381.780518,1471.697510 
	C1382.427734,1430.709473 1382.291016,1389.707764 1382.313110,1348.711426 
	C1382.365356,1251.718018 1382.412476,1154.724365 1382.229248,1057.731323 
	C1382.204224,1044.438965 1380.949829,1031.142334 1380.047729,1017.862549 
	C1379.824585,1014.577759 1378.875122,1011.319092 1378.049316,1008.102356 
	C1374.379639,993.809265 1365.316895,984.959167 1350.825317,982.154114 
	C1340.434692,980.143005 1329.934448,978.698547 1318.964233,976.916992 
	C1318.964233,971.818970 1318.964233,966.616882 1318.964233,960.491150 
	C1405.746460,964.042236 1492.503662,961.886658 1579.414307,959.845154 
	C1628.160034,1069.456421 1676.702515,1178.610840 1725.552490,1288.460693 
z"/>
<path fill="var(--logotext)" opacity="1.000000" stroke="none" 
	d="
M2313.969727,221.384491 
	C2369.282959,220.957489 2423.610596,219.783981 2477.920166,220.344788 
	C2521.323730,220.792969 2564.305176,226.001785 2605.778809,239.921768 
	C2624.822266,246.313446 2642.805420,254.842056 2658.775635,267.248566 
	C2686.769531,288.995697 2701.145752,317.945496 2703.891357,352.933167 
	C2709.538574,424.897125 2667.414062,481.872101 2602.734619,506.069489 
	C2575.105225,516.405884 2546.470947,522.104980 2517.368652,525.949524 
	C2515.239990,526.230652 2513.108398,526.487183 2510.812988,528.545288 
	C2513.889893,528.974670 2516.958008,529.481201 2520.044678,529.821350 
	C2547.908203,532.891785 2575.307373,537.867615 2601.783691,547.557251 
	C2647.608398,564.328064 2675.277588,595.910156 2684.002197,644.374939 
	C2689.895508,677.113586 2697.125732,709.615356 2704.038574,742.163513 
	C2705.341309,748.296875 2707.540039,754.336975 2710.063477,760.096619 
	C2718.663330,779.724304 2737.885254,785.676880 2756.317139,774.664062 
	C2758.836426,773.158875 2761.217041,771.421448 2763.901367,769.631836 
	C2767.172852,773.192383 2770.261475,776.554138 2774.053467,780.681519 
	C2771.708008,782.912354 2768.991699,785.695435 2766.070068,788.243042 
	C2746.263184,805.513611 2723.343018,816.065369 2697.472656,820.734436 
	C2664.640381,826.659973 2631.845215,827.353821 2599.183350,820.329712 
	C2551.884766,810.157837 2527.670410,784.610901 2520.011963,737.022766 
	C2514.405029,702.184753 2509.505615,667.233154 2503.951416,632.386230 
	C2500.647461,611.657715 2496.080811,591.155884 2487.952881,571.712769 
	C2484.767334,564.093079 2480.879639,556.591675 2476.185791,549.816589 
	C2468.108154,538.157959 2456.385010,532.172668 2442.168701,531.849731 
	C2429.208984,531.555298 2416.237061,531.787354 2402.612793,531.787354 
	C2402.384521,534.642456 2402.005127,537.182068 2402.004395,539.721863 
	C2401.981445,603.043945 2401.802246,666.367188 2402.175293,729.687134 
	C2402.249268,742.259399 2403.724365,754.949158 2405.893799,767.350281 
	C2408.369873,781.503418 2417.430420,790.344604 2431.792236,792.918396 
	C2441.251709,794.613647 2450.810303,795.754700 2461.049805,797.249695 
	C2461.049805,802.134399 2461.049805,807.253296 2461.049805,813.168640 
	C2365.207520,810.440979 2269.385498,810.451355 2173.074707,813.190918 
	C2170.809570,808.383057 2172.183105,803.123596 2172.108887,797.201294 
	C2179.703613,796.189575 2187.174316,795.246216 2194.626465,794.176086 
	C2197.581055,793.751770 2200.497559,793.058228 2203.427246,792.466187 
	C2217.518799,789.618408 2225.878662,780.683716 2227.919922,766.890747 
	C2229.960449,753.102600 2231.459717,739.093079 2231.509521,725.174622 
	C2231.825928,636.858032 2231.677246,548.539856 2231.677246,460.222168 
	C2231.677246,408.897949 2231.892578,357.572052 2231.506836,306.250702 
	C2231.409668,293.326569 2230.037109,280.314514 2228.059326,267.527130 
	C2225.686279,252.184662 2216.614990,242.367981 2200.807129,239.692978 
	C2191.650879,238.143600 2182.480957,236.675247 2172.584961,235.050201 
	C2172.584961,230.342072 2172.584961,225.190811 2172.584961,219.424393 
	C2219.315918,220.077545 2266.146240,220.732101 2313.969727,221.384491 
M2500.593262,485.486023 
	C2512.092773,470.299408 2518.187744,452.797821 2522.098145,434.448975 
	C2529.605713,399.218903 2529.259033,363.681702 2525.152344,328.142578 
	C2522.972412,309.277191 2518.802002,290.792633 2510.213379,273.585327 
	C2502.648193,258.428711 2491.733643,246.656540 2475.635986,240.719818 
	C2459.983154,234.946960 2443.840820,234.240967 2427.522949,237.998856 
	C2417.197998,240.376617 2410.446045,246.737717 2407.122314,256.563568 
	C2405.538330,261.246582 2404.344971,266.211304 2403.969971,271.124390 
	C2403.008301,283.718994 2402.097900,296.354675 2402.062012,308.976471 
	C2401.876953,373.888824 2401.974121,438.802002 2401.972656,503.714874 
	C2401.972656,506.954834 2401.972656,510.194763 2401.972656,514.889465 
	C2417.758301,514.190491 2432.685791,514.297913 2447.426270,512.690674 
	C2467.839844,510.464935 2485.927490,502.594635 2500.593262,485.486023 
z"/>
<path fill="var(--logotext)" opacity="1.000000" stroke="none" 
	d="
M641.410339,987.604980 
	C640.473511,1049.867554 639.579285,1111.178589 638.697205,1172.489624 
	C638.645386,1176.093506 638.690491,1179.698730 638.690491,1183.811279 
	C631.538940,1183.811279 625.076904,1183.811279 619.213501,1183.811279 
	C615.353271,1160.281128 612.263245,1137.209473 607.650269,1114.446655 
	C602.398987,1088.534180 594.135437,1063.507080 577.690125,1042.186523 
	C542.958374,997.158508 496.765930,975.507202 440.115967,975.571899 
	C385.662262,975.634094 346.914124,1002.402344 318.342621,1046.799438 
	C297.673523,1078.917114 285.745575,1114.294312 277.855835,1151.378296 
	C264.353973,1214.841064 263.202759,1278.999390 266.784485,1343.378784 
	C269.118073,1385.323486 274.138214,1426.957520 285.877045,1467.503662 
	C294.841736,1498.467773 307.097137,1527.850586 328.430786,1552.564087 
	C356.971039,1585.625732 393.038330,1597.104614 435.412048,1587.839844 
	C458.046112,1582.891113 471.337433,1567.995605 471.753571,1544.989136 
	C472.620697,1497.046631 474.528625,1449.042480 470.097717,1401.142822 
	C470.067047,1400.811035 470.045593,1400.478149 470.006805,1400.147217 
	C465.786072,1364.133301 450.072418,1348.370361 413.890900,1344.016602 
	C403.675476,1342.787354 393.428131,1341.823608 382.528625,1340.667114 
	C382.528625,1335.144043 382.528625,1329.693359 382.528625,1323.246460 
	C485.279358,1326.060303 588.065369,1327.265625 691.401123,1323.207397 
	C691.401123,1329.382690 691.401123,1334.856079 691.401123,1340.516113 
	C686.004089,1341.866089 680.812256,1342.877563 675.810059,1344.480835 
	C667.651001,1347.095825 661.817932,1352.494629 659.943237,1360.976562 
	C658.155396,1369.065308 656.334412,1377.322754 656.110657,1385.548950 
	C655.385986,1412.194458 655.237183,1438.859131 655.146362,1465.517334 
	C655.010193,1505.509888 655.111328,1545.503418 655.111511,1585.496460 
	C655.111511,1588.778931 655.111450,1592.061401 655.111450,1595.832764 
	C648.794250,1595.832764 643.290588,1595.832764 637.856995,1595.832764 
	C635.932861,1587.143799 634.664978,1578.575806 632.109253,1570.410889 
	C624.508545,1546.128174 615.343689,1540.984253 591.172546,1548.574219 
	C577.580566,1552.842285 564.307739,1558.432617 551.397705,1564.504150 
	C521.830627,1578.409546 491.743042,1590.816528 460.245819,1599.669556 
	C427.744690,1608.804565 394.624664,1610.155151 361.162842,1608.057983 
	C322.119415,1605.611206 283.738770,1599.647949 246.649536,1586.835083 
	C155.511230,1555.350342 98.384750,1491.870850 72.569992,1399.812500 
	C58.953960,1351.255981 55.653103,1301.547363 59.477821,1251.274414 
	C62.590313,1210.363281 72.003448,1171.154785 89.374931,1133.927002 
	C116.198074,1076.443848 156.728531,1031.205933 211.023132,998.446106 
	C258.315094,969.911499 309.730194,954.191650 364.698395,949.503357 
	C397.350098,946.718567 429.902710,946.303589 462.355347,951.488159 
	C505.420746,958.368225 543.539307,976.369873 577.845642,1002.964783 
	C582.030273,1006.208801 586.376648,1009.497375 591.144226,1011.682861 
	C600.677368,1016.052856 607.601379,1014.003723 611.595093,1004.300293 
	C615.474670,994.874146 617.442383,984.634216 619.918091,974.669250 
	C621.035889,970.170044 621.349609,965.471008 622.102722,960.356445 
	C628.433105,960.356445 634.648315,960.356445 641.455688,960.356445 
	C641.455688,968.970703 641.455688,977.812073 641.410339,987.604980 
z"/>
<path fill="var(--logotext)" opacity="1.000000" stroke="none" 
	d="
M984.000122,962.236694 
	C1067.258179,961.890442 1149.516357,961.542419 1232.812866,961.190002 
	C1228.502808,1031.966675 1224.411499,1103.290283 1229.191772,1175.204712 
	C1222.491577,1175.204712 1216.268311,1175.204712 1209.299561,1175.204712 
	C1206.879639,1163.309692 1204.671387,1151.293457 1201.967041,1139.389771 
	C1195.078003,1109.065308 1185.738647,1079.563721 1169.148071,1052.989990 
	C1146.227661,1016.277954 1114.353027,991.570374 1071.222900,983.254272 
	C1049.466431,979.059204 1027.423584,979.233643 1005.514038,982.325867 
	C989.332336,984.609741 981.320801,992.458008 978.847351,1008.827454 
	C977.410095,1018.339294 977.054321,1028.086426 977.035522,1037.729370 
	C976.892578,1111.059692 976.947449,1184.390381 976.970459,1257.720947 
	C976.971375,1260.631714 977.272278,1263.542480 977.459656,1266.926392 
	C1005.120789,1268.710083 1029.638550,1262.078125 1050.527954,1244.700562 
	C1078.204956,1221.676636 1096.496216,1192.390015 1106.018921,1157.653076 
	C1106.808228,1154.773560 1107.581177,1151.889526 1108.443604,1148.705078 
	C1114.874634,1148.705078 1121.098755,1148.705078 1128.605957,1148.705078 
	C1124.299805,1233.570923 1125.328369,1318.031250 1131.791382,1403.210571 
	C1124.686157,1403.210571 1117.957886,1403.210571 1110.801758,1403.210571 
	C1107.309814,1384.050659 1101.715332,1365.662964 1091.703003,1348.932129 
	C1077.534302,1325.256104 1059.155640,1306.014038 1033.453003,1294.667969 
	C1015.726685,1286.843140 997.173096,1284.590454 976.950012,1285.821167 
	C976.950012,1289.197632 976.949890,1292.087402 976.950012,1294.977295 
	C976.953186,1369.307861 976.839966,1443.638672 977.083801,1517.968506 
	C977.120728,1529.236328 978.253479,1540.582153 979.903259,1551.740356 
	C981.573853,1563.039307 988.761230,1570.111206 999.995911,1572.636353 
	C1004.528137,1573.655151 1009.160583,1574.765747 1013.763306,1574.839233 
	C1032.401245,1575.136841 1051.080933,1575.798462 1069.679077,1574.921631 
	C1096.722046,1573.646484 1119.333862,1561.218262 1139.923218,1544.453979 
	C1172.266602,1518.119141 1191.963623,1483.455688 1205.785522,1444.910522 
	C1215.244507,1418.531616 1221.692505,1391.354126 1226.864136,1363.091431 
	C1233.333740,1363.091431 1239.791260,1363.091431 1247.100586,1363.091431 
	C1243.601929,1440.410767 1244.307007,1517.816650 1250.803223,1595.772705 
	C1077.505737,1592.665161 904.655029,1593.409546 731.153320,1596.198486 
	C731.153320,1590.298584 731.153320,1584.844482 731.153320,1578.756226 
	C737.774414,1577.914062 744.295105,1577.077271 750.818237,1576.260010 
	C752.471436,1576.052856 754.145996,1575.990234 755.787659,1575.720703 
	C780.244629,1571.706909 789.122437,1562.820190 792.216309,1538.077637 
	C793.535034,1527.530396 794.236877,1516.834717 794.245605,1506.205688 
	C794.370605,1354.211670 794.378540,1202.217407 794.226135,1050.223389 
	C794.214844,1038.934937 793.538513,1027.528564 791.824463,1016.384216 
	C787.997253,991.500305 776.663025,984.356995 759.382568,981.484802 
	C750.214844,979.961060 741.022949,978.582703 731.152710,977.030273 
	C731.152710,971.902344 731.152710,966.443787 731.152710,960.580688 
	C815.245972,961.133057 899.122986,961.684021 984.000122,962.236694 
z"/>
<path fill="var(--logotext)" opacity="1.000000" stroke="none" 
	d="
M2429.902832,1220.000000 
	C2429.902832,1235.975098 2429.902832,1250.950317 2429.902832,1267.126709 
	C2440.903320,1267.828491 2451.398926,1267.074829 2461.704102,1264.875122 
	C2485.415771,1259.813477 2504.371582,1246.792847 2520.155029,1228.787964 
	C2540.273682,1205.837646 2554.513428,1179.830566 2560.926270,1149.074463 
	C2567.456543,1149.074463 2573.921143,1149.074463 2581.333984,1149.074463 
	C2577.734619,1233.683838 2578.202148,1318.380371 2584.610107,1403.513916 
	C2577.329102,1403.513916 2571.125000,1403.513916 2564.041748,1403.513916 
	C2563.366455,1400.625732 2562.615967,1397.494751 2561.903564,1394.354980 
	C2552.892090,1354.644531 2532.998535,1322.237915 2497.785889,1300.590820 
	C2477.308838,1288.002686 2454.639160,1284.165527 2429.903564,1285.860962 
	C2429.903564,1289.204468 2429.903564,1292.112671 2429.903564,1295.020874 
	C2429.906982,1370.007080 2429.843750,1444.993408 2429.998779,1519.979370 
	C2430.018066,1529.271362 2430.696777,1538.629272 2431.949707,1547.836792 
	C2434.101318,1563.647583 2441.975830,1571.434326 2457.718506,1573.787720 
	C2464.947754,1574.868408 2472.299072,1575.594604 2479.599854,1575.635254 
	C2494.247314,1575.716797 2508.928711,1575.729248 2523.540039,1574.844604 
	C2549.858887,1573.250854 2571.894043,1561.285522 2592.020996,1545.107422 
	C2624.242432,1519.207153 2644.069336,1485.009399 2657.962891,1446.833130 
	C2666.860107,1422.384766 2673.235596,1397.254517 2678.092041,1371.718506 
	C2678.648438,1368.793579 2679.404785,1365.906738 2680.135742,1362.707031 
	C2686.652832,1362.707031 2692.858154,1362.707031 2700.059570,1362.707031 
	C2696.246826,1440.480347 2697.157715,1517.866455 2703.752930,1595.801514 
	C2530.448242,1592.634766 2357.650879,1593.429810 2184.273926,1596.177246 
	C2184.273926,1590.250244 2184.273926,1584.786377 2184.273926,1578.693604 
	C2191.520020,1577.805786 2198.705078,1576.958130 2205.881104,1576.040771 
	C2232.909912,1572.585693 2243.146240,1562.249390 2245.744629,1534.942871 
	C2246.848145,1523.347534 2247.518311,1511.662964 2247.527588,1500.018433 
	C2247.644775,1352.378906 2247.707275,1204.739380 2247.451172,1057.100220 
	C2247.425293,1042.178467 2246.001953,1027.149170 2243.850098,1012.370178 
	C2241.402832,995.562378 2231.530762,984.718079 2214.156982,981.822876 
	C2204.372314,980.192383 2194.573242,978.645874 2184.225586,976.971680 
	C2184.225586,971.721497 2184.225586,966.252747 2184.225586,959.986938 
	C2351.324707,962.757935 2518.107910,963.485168 2685.820801,960.539551 
	C2681.301514,1032.029785 2677.183105,1103.345337 2682.050781,1175.671265 
	C2679.340332,1175.671265 2677.425049,1175.671265 2675.510010,1175.671265 
	C2671.210693,1175.671265 2666.911133,1175.671265 2662.342773,1175.671265 
	C2659.459473,1161.782104 2656.993896,1148.392822 2653.868164,1135.159424 
	C2647.030029,1106.208984 2637.786133,1078.083740 2621.857422,1052.703247 
	C2598.634277,1015.699890 2566.352539,991.018250 2522.820068,982.978210 
	C2501.735107,979.083984 2480.342041,979.290894 2459.081055,982.208069 
	C2442.319092,984.507996 2434.067383,992.561035 2431.855225,1009.163818 
	C2430.627930,1018.374878 2430.019775,1027.734253 2429.994873,1037.029175 
	C2429.832764,1097.685669 2429.906250,1158.343018 2429.902832,1220.000000 
z"/>
<path fill="var(--logotext)" opacity="1.000000" stroke="none" 
	d="
M1993.881348,523.998474 
	C1995.278442,560.898682 1996.669312,596.799316 1998.082397,633.275391 
	C1992.021973,633.275391 1986.172729,633.275391 1979.592651,633.275391 
	C1978.364990,628.004395 1977.257812,622.511047 1975.799927,617.112427 
	C1967.632935,586.870544 1951.804321,561.668701 1926.392456,542.931213 
	C1905.351562,527.416626 1881.434448,522.163574 1854.948975,523.360718 
	C1854.690918,526.043579 1854.240356,528.550537 1854.239380,531.057617 
	C1854.211304,602.716675 1854.165527,674.375854 1854.326050,746.034607 
	C1854.343872,753.997437 1855.096069,762.035645 1856.367676,769.899841 
	C1858.089600,780.547791 1863.630859,789.177307 1874.848633,790.985962 
	C1904.260376,795.727661 1934.051147,797.827881 1962.969360,789.364624 
	C1994.922241,780.013245 2018.409180,758.206543 2037.718506,731.935486 
	C2056.304688,706.648376 2067.484863,677.763550 2075.800781,647.781372 
	C2080.508057,630.809692 2084.173828,613.549194 2088.436035,595.890625 
	C2094.060547,595.890625 2099.913086,595.890625 2105.802734,595.890625 
	C2105.484619,632.332581 2104.483398,668.518066 2105.045898,704.679199 
	C2105.604492,740.608948 2107.736084,776.514221 2109.201904,813.030518 
	C1948.152466,809.977539 1786.707031,811.032227 1624.691406,813.238647 
	C1624.691406,807.694702 1624.691406,802.576599 1624.691406,797.063049 
	C1632.861816,796.022156 1640.738159,795.138123 1648.577026,793.997131 
	C1669.741943,790.916382 1678.979736,781.778442 1681.702515,760.422729 
	C1682.963989,750.529480 1683.765625,740.502930 1683.774658,730.535950 
	C1683.904297,587.551270 1683.943359,444.566284 1683.712402,301.581848 
	C1683.693726,290.005432 1682.143677,278.331879 1680.231689,266.882751 
	C1677.732300,251.916061 1668.765869,242.455078 1653.448242,239.766739 
	C1644.010498,238.110413 1634.546143,236.605896 1624.634033,234.956741 
	C1624.634033,229.884140 1624.634033,224.750076 1624.634033,219.074753 
	C1780.961182,220.844467 1936.775146,223.286545 2093.094727,219.023071 
	C2091.486816,252.749817 2089.244873,285.895447 2088.510986,319.074463 
	C2087.775146,352.343048 2088.543701,385.644958 2088.655029,419.638855 
	C2083.706299,419.638855 2077.623291,419.638855 2071.908447,419.638855 
	C2067.195312,399.950012 2063.165283,380.430084 2057.778809,361.291779 
	C2051.074707,337.470551 2041.569824,314.691223 2026.462036,294.802063 
	C2000.712769,260.903534 1966.999756,240.857254 1923.988647,238.698135 
	C1909.755737,237.983643 1895.333740,238.788544 1881.135010,240.238831 
	C1865.172363,241.869278 1858.154785,249.407761 1856.080444,265.183197 
	C1855.040405,273.091797 1854.323975,281.107300 1854.307861,289.076172 
	C1854.166748,359.068481 1854.216675,429.061157 1854.209839,499.053741 
	C1854.209717,500.995270 1854.209839,502.936829 1854.209839,505.493195 
	C1872.462891,507.569183 1889.040771,504.174011 1904.901978,496.576172 
	C1918.033447,490.285858 1928.946777,481.110077 1938.552734,470.304718 
	C1957.496948,448.994629 1970.556641,424.612274 1976.737793,396.038208 
	C1982.904419,396.038208 1989.028809,396.038208 1994.899170,396.038208 
	C1994.556396,438.542419 1994.215820,480.770660 1993.881348,523.998474 
z"/>
<path fill="var(--logotext)" opacity="1.000000" stroke="none" 
	d="
M600.232666,543.778076 
	C558.919739,498.658051 518.084717,454.064270 475.762024,407.845917 
	C475.447632,412.315338 475.159241,414.473419 475.163696,416.630920 
	C475.350647,506.954071 475.365295,597.278503 475.953430,687.599182 
	C476.061462,704.192322 477.802307,720.866455 480.040924,737.333069 
	C483.542847,763.091492 497.451477,780.877075 523.071289,788.148376 
	C534.865723,791.495728 546.842041,794.202087 559.393188,797.364746 
	C559.393188,802.091614 559.393188,807.250000 559.393188,813.174194 
	C505.391266,810.995850 451.557404,810.018982 397.228088,813.140564 
	C394.943848,808.319092 396.411774,803.062378 396.162170,797.348450 
	C398.959015,796.396118 401.635223,795.269104 404.418915,794.570312 
	C433.611084,787.242676 448.850616,767.925964 451.817200,738.617554 
	C453.593781,721.065735 455.474762,703.421509 455.521790,685.814026 
	C455.864685,557.492981 455.853943,429.170563 455.620453,300.849182 
	C455.598785,288.947571 453.969482,276.917389 451.797760,265.185486 
	C449.265259,251.504578 440.585876,242.733093 426.641235,240.036591 
	C416.889832,238.150955 407.050323,236.721054 396.640564,234.986008 
	C396.640564,230.117081 396.640564,224.983459 396.640564,219.303055 
	C411.482605,219.800797 426.036438,220.752563 440.585266,220.681305 
	C471.901825,220.527924 503.224884,220.135300 534.523254,219.144409 
	C540.874817,218.943314 544.919006,220.382828 549.204163,224.921387 
	C658.118958,340.275574 767.169250,455.501709 876.223145,570.724487 
	C878.963806,573.620178 882.010742,576.226074 885.478821,579.499512 
	C885.810974,577.406250 886.415955,575.374268 886.414917,573.342468 
	C886.377441,500.349304 886.374939,427.355804 886.141541,354.363129 
	C886.071228,332.364899 884.950806,310.403809 880.263000,288.792114 
	C875.750732,267.989685 864.013062,253.106064 843.657349,246.236755 
	C830.456909,241.782089 816.817322,238.628677 802.479370,234.643417 
	C802.479370,230.313568 802.479370,224.899780 802.479370,219.036911 
	C856.783325,221.168884 910.635925,222.714188 965.111267,218.929520 
	C965.111267,224.610840 965.111267,229.780304 965.111267,235.435944 
	C962.128357,236.336121 959.018799,237.351120 955.867432,238.213531 
	C928.731323,245.639679 913.135986,263.507355 910.218140,291.242645 
	C907.886841,313.402954 906.216309,335.747009 906.162537,358.014130 
	C905.806030,505.667084 905.964783,653.321228 905.955933,800.975037 
	C905.955688,804.893860 905.955872,808.812744 905.955872,813.338928 
	C897.709167,812.909363 890.480835,812.217102 883.254272,812.235291 
	C873.934204,812.258789 864.572510,812.422058 855.311707,813.352051 
	C849.356018,813.950195 845.576721,812.109680 841.585876,807.730042 
	C780.751770,740.968750 719.727112,674.381165 658.749756,607.750366 
	C639.399048,586.605652 620.056702,565.453247 600.232666,543.778076 
z"/>
<path fill="var(--logotext)" opacity="1.000000" stroke="none" 
	d="
M1089.959839,478.000000 
	C1089.970825,539.322083 1089.625244,599.647461 1090.169067,659.964722 
	C1090.384888,683.911377 1092.389038,707.852600 1093.993530,731.768433 
	C1094.389404,737.667358 1096.095459,743.546631 1097.737549,749.280823 
	C1102.854614,767.150696 1114.173462,779.784058 1131.697510,785.817017 
	C1145.162964,790.452698 1159.131714,793.625671 1173.920654,797.739502 
	C1173.920654,801.944458 1173.920654,807.337524 1173.920654,813.217285 
	C1119.722656,810.885315 1065.897583,810.109253 1011.498352,813.122437 
	C1011.498352,807.650574 1011.498352,802.453003 1011.498352,796.927612 
	C1015.721069,795.675659 1019.839966,794.511292 1023.923645,793.234436 
	C1048.358276,785.593811 1062.412476,768.879211 1065.798462,743.712402 
	C1067.882080,728.226074 1069.737061,712.580444 1069.901855,696.987488 
	C1070.500122,640.337280 1070.404297,583.679138 1070.453491,527.023926 
	C1070.515991,455.037354 1070.582031,383.050354 1070.357666,311.064453 
	C1070.316162,297.777618 1069.653931,284.397736 1067.946777,271.233490 
	C1065.398926,251.585678 1057.385498,243.462204 1037.813477,239.224640 
	C1029.388916,237.400635 1020.751953,236.557358 1011.555298,235.169479 
	C1011.555298,230.273560 1011.555298,225.124405 1011.555298,220.403412 
	C1022.701782,220.403412 1033.578491,220.500504 1044.453003,220.385635 
	C1080.425171,220.005646 1116.400513,219.730042 1152.363525,218.921951 
	C1157.597046,218.804352 1160.274902,221.102158 1163.292114,224.294479 
	C1204.267456,267.648590 1245.278076,310.969330 1286.282837,354.295715 
	C1355.922119,427.877960 1425.561401,501.460114 1495.215942,575.027832 
	C1496.741943,576.639404 1498.453491,578.075195 1501.264893,580.701050 
	C1501.442749,577.102783 1501.641846,574.952515 1501.641846,572.802246 
	C1501.643677,506.148010 1501.840332,439.492676 1501.506470,372.840027 
	C1501.373047,346.205261 1500.798096,319.534790 1496.133667,293.160065 
	C1491.953735,269.524628 1479.543091,252.685135 1456.210205,245.314636 
	C1443.553345,241.316559 1430.567871,238.359253 1417.004639,234.738647 
	C1417.004639,230.300003 1417.004639,225.150406 1417.004639,219.127884 
	C1471.071167,220.942368 1524.921997,222.927811 1579.533203,218.870087 
	C1579.533203,224.412323 1579.533203,229.845108 1579.533203,235.310471 
	C1572.708618,237.751831 1565.741455,239.935150 1559.018921,242.710648 
	C1542.871826,249.377060 1532.066040,261.238983 1528.119141,278.216553 
	C1525.268311,290.478607 1523.202393,303.072327 1522.380981,315.622498 
	C1521.097778,335.225220 1520.744385,354.915955 1520.726929,374.570038 
	C1520.601562,516.543518 1520.659790,658.517151 1520.659790,800.490723 
	C1520.659790,804.444702 1520.659790,808.398743 1520.659790,812.989868 
	C1518.437012,813.118958 1516.907715,813.289429 1515.378906,813.283875 
	C1500.742676,813.230896 1486.088501,812.698914 1471.478271,813.278625 
	C1464.949951,813.537659 1460.492065,812.240479 1455.919800,807.218018 
	C1391.308716,736.246948 1326.460815,665.491211 1261.671265,594.682739 
	C1207.004883,534.937866 1152.333496,475.197571 1097.697998,415.424561 
	C1095.735107,413.276978 1094.129517,410.802673 1092.357422,408.480621 
	C1091.558228,408.867249 1090.759033,409.253845 1089.959839,409.640472 
	C1089.959839,432.093658 1089.959839,454.546814 1089.959839,478.000000 
z"/>
<path fill="var(--logotext)" opacity="1.000000" stroke="none" 
	d="
M288.401123,376.000183 
	C288.401917,491.637787 288.285431,606.275635 288.549438,720.912598 
	C288.583038,735.502930 289.669434,750.236389 291.943359,764.638977 
	C294.763367,782.500366 303.799744,790.627808 321.514282,793.665466 
	C329.984222,795.117920 338.570526,795.891846 347.614807,797.037842 
	C347.614807,802.387146 347.614807,807.516968 347.614807,813.180237 
	C251.407974,810.400757 155.578674,810.487061 59.037441,813.195984 
	C59.037441,808.010681 59.037441,802.881897 59.037441,797.112976 
	C67.076103,796.073364 75.261757,795.172974 83.393661,793.922974 
	C93.447655,792.377380 103.480278,789.906921 108.986511,780.439819 
	C112.249306,774.829956 114.508980,768.268311 115.611183,761.858093 
	C117.183853,752.711731 117.907043,743.312256 117.915802,734.019897 
	C118.052452,589.057007 118.103691,444.093811 117.850014,299.131287 
	C117.829796,287.576782 116.171982,275.879150 113.931824,264.512787 
	C111.323845,251.280121 102.749664,242.761047 89.262070,240.091690 
	C79.492157,238.158112 69.614830,236.767242 59.022385,235.007599 
	C59.022385,230.376678 59.022385,225.244202 59.022385,219.031204 
	C155.031891,221.781693 251.090485,222.283112 347.657166,218.853058 
	C347.657166,224.701889 347.657166,229.849762 347.657166,234.965469 
	C337.165497,236.706238 327.013458,238.136734 316.969971,240.117798 
	C302.627167,242.946838 293.852173,251.858170 291.860382,266.269531 
	C290.087219,279.099121 288.851593,292.080200 288.562622,305.020874 
	C288.041962,328.336853 288.406372,351.672668 288.401123,376.000183 
z"/>
  
    <!--within the R-->
    
<path fill="var(--logobg)" opacity="1.000000" stroke="none" 
	d="
M2500.167480,486.062042 
	C2485.927490,502.594635 2467.839844,510.464935 2447.426270,512.690674 
	C2432.685791,514.297913 2417.758301,514.190491 2401.972656,514.889465 
	C2401.972656,510.194763 2401.972656,506.954834 2401.972656,503.714874 
	C2401.974121,438.802002 2401.876953,373.888824 2402.062012,308.976471 
	C2402.097900,296.354675 2403.008301,283.718994 2403.969971,271.124390 
	C2404.344971,266.211304 2405.538330,261.246582 2407.122314,256.563568 
	C2410.446045,246.737717 2417.197998,240.376617 2427.522949,237.998856 
	C2443.840820,234.240967 2459.983154,234.946960 2475.635986,240.719818 
	C2491.733643,246.656540 2502.648193,258.428711 2510.213379,273.585327 
	C2518.802002,290.792633 2522.972412,309.277191 2525.152344,328.142578 
	C2529.259033,363.681702 2529.605713,399.218903 2522.098145,434.448975 
	C2518.187744,452.797821 2512.092773,470.299408 2500.167480,486.062042 
z"/>
</svg>
